<svg width="75" height="68" viewBox="0 0 75 68" fill="none" xmlns="http://www.w3.org/2000/svg">
<g clip-path="url(#clip0_235_5732)">
<path d="M64.6284 72.8041L59.7377 67.2724L55.6992 70.8432L64.4545 80.7454L78.6353 66.0565L74.7571 62.3125L64.6284 72.8041Z" fill="#E2E2E2" stroke="white" stroke-width="3"/>
<path d="M67.3866 48.6768C66.8952 48.6768 66.4079 48.6946 65.9243 48.7263L64.3614 21.9734H51.6073V16.7714C51.6071 8.07504 44.5321 1 35.8357 1C27.1394 1 20.0643 8.07504 20.0643 16.7714V21.9734H7.31004L4.47707 70.4664C4.25659 74.2422 5.56437 77.8368 8.1596 80.588C10.7548 83.3392 14.267 84.8544 18.0491 84.8544H50.2334C54.3008 89.8231 60.4794 93 67.3866 93C79.6065 93 89.5481 83.0584 89.5481 70.8385C89.5481 58.6185 79.6065 48.6768 67.3866 48.6768ZM25.4548 16.7714C25.4548 11.0474 30.1116 6.39065 35.8355 6.39065C41.5595 6.39065 46.2165 11.0474 46.2165 16.7714V21.9734H25.4548V16.7714ZM18.0491 79.4637C15.7667 79.4637 13.6471 78.5493 12.0809 76.889C10.5148 75.2287 9.72559 73.0593 9.85856 70.7808L12.3949 27.3642H20.0641V34.1183H25.4548V27.3642H46.2165V34.1183H51.6071V27.3642H59.2764L60.584 49.7465C51.6821 52.6244 45.2252 60.9911 45.2252 70.8387C45.2252 73.8964 45.8478 76.8115 46.9726 79.4639H18.0491V79.4637ZM67.3866 87.6094C58.1392 87.6094 50.6158 80.086 50.6158 70.8385C50.6158 61.5909 58.1392 54.0675 67.3866 54.0675C76.6341 54.0675 84.1575 61.5909 84.1575 70.8385C84.1575 80.086 76.6341 87.6094 67.3866 87.6094Z" fill="#E2E2E2" stroke="white" stroke-width="3"/>
</g>
<defs>
<clipPath id="clip0_235_5732">
<rect width="75" height="68" fill="white"/>
</clipPath>
</defs>
</svg>
