<svg width="75" height="68" viewBox="0 0 75 68" fill="none" xmlns="http://www.w3.org/2000/svg">
<g clip-path="url(#clip0_235_5755)">
<path d="M53 4.5H32.6333C31.492 4.5 30.5667 5.42534 30.5667 6.56667V17.0333H7.56667C6.42534 17.0333 5.5 17.9587 5.5 19.1V97.4333C5.5 98.5747 6.42534 99.5 7.56667 99.5H53C54.1413 99.5 55.0667 98.5747 55.0667 97.4333V6.56667C55.0667 5.42534 54.1413 4.5 53 4.5ZM50.9333 85.9667H34.7V83.8333H50.9333V85.9667ZM9.63333 29H30.5667V75H9.63333V29ZM50.9333 21.7333H34.7V18.0333H50.9333V21.7333ZM9.63333 79.1333H30.5667V82.8333H9.63333V79.1333ZM34.7 79.7V25.8667H50.9333V79.7H34.7ZM50.9333 8.63333V13.9H34.7V8.63333H50.9333ZM30.5667 21.1667V24.8667H9.63333V21.1667H30.5667ZM9.63333 86.9667H30.5667V95.3667H9.63333V86.9667ZM34.7 95.3667V90.1H50.9333V95.3667H34.7Z" fill="#E2E2E2" stroke="white"/>
<path d="M100.434 90.6453L100.434 90.6465C100.717 91.7445 100.063 92.8667 98.9665 93.1594L98.9663 93.1594L75.4678 99.4257C75.4677 99.4257 75.4677 99.4257 75.4676 99.4257C74.9366 99.5691 74.3704 99.4943 73.8949 99.2187L73.8946 99.2186C73.4185 98.9422 73.0721 98.4871 72.9336 97.9538L100.434 90.6453ZM100.434 90.6453L81.6337 18.5793C81.4954 18.0462 81.15 17.5909 80.674 17.3136L80.6737 17.3134C80.1984 17.0369 79.6324 16.9612 79.1008 17.1034C79.1007 17.1034 79.1006 17.1034 79.1004 17.1035L55.6009 23.37C55.6009 23.37 55.6008 23.37 55.6008 23.37C54.503 23.6627 53.8469 24.7869 54.1335 25.887L54.1336 25.8872L72.9334 97.9532L100.434 90.6453ZM61.1485 36.4026L80.6553 31.2021L81.1392 33.0544L61.634 38.2629L61.1485 36.4026ZM62.6836 42.2623L82.1827 37.0619L91.0168 70.9488L71.5177 76.1513L62.6836 42.2623ZM72.566 80.1522L92.0671 74.9495L93.4187 80.1299L73.9124 85.3303L72.566 80.1522ZM58.653 26.8335L78.1582 21.6316L79.6117 27.2044L60.1051 32.4034L58.653 26.8335ZM76.4089 94.9009L74.9554 89.3281L94.4621 84.1261L95.9142 89.696L76.4089 94.9009Z" fill="#E2E2E2" stroke="white"/>
<path d="M26.3676 32.6992H13.8342C12.6929 32.6992 11.7676 33.6246 11.7676 34.7659V47.2992C11.7676 48.4405 12.6929 49.3659 13.8342 49.3659H26.3676C27.5089 49.3659 28.4342 48.4405 28.4342 47.2992V34.7659C28.4342 33.6246 27.5089 32.6992 26.3676 32.6992ZM24.3009 45.2326H15.9009V36.8326H24.3009V45.2326Z" fill="#E2E2E2" stroke="white"/>
</g>
<defs>
<clipPath id="clip0_235_5755">
<rect width="75" height="68" fill="white"/>
</clipPath>
</defs>
</svg>
