<svg width="78" height="68" viewBox="0 0 78 68" fill="none" xmlns="http://www.w3.org/2000/svg">
<g clip-path="url(#clip0_235_5577)">
<path d="M93.4108 61.565H92.9256V58.5617C92.9256 57.1827 91.8037 56.0608 90.4247 56.0608H87.8864L76.9331 45.1075C76.8865 45.0608 76.8365 45.02 76.7854 44.9814V29.9845H84.6907C85.2086 29.9845 85.6813 29.6895 85.909 29.224C86.1365 28.7587 86.0794 28.2044 85.7614 27.7955L80.3361 20.8183C80.0791 20.4879 79.6839 20.2946 79.2653 20.2946H76.3982L32.2857 2.78498C32.2428 2.7678 32.1988 2.75279 32.1538 2.73995C32.1395 2.73579 32.1251 2.73307 32.1106 2.72946C32.0837 2.72276 32.0567 2.71571 32.0292 2.71065C32.0032 2.70577 31.9771 2.70269 31.9511 2.69944C31.935 2.69745 31.9191 2.69473 31.9028 2.69329C31.871 2.69039 31.8395 2.68931 31.8079 2.68877C31.7988 2.68859 31.79 2.6875 31.7807 2.6875H31.7607C31.7561 2.6875 31.7516 2.6875 31.7473 2.6875H28.4087C27.7054 2.6875 27.1187 3.22515 27.0574 3.92575L25.6273 20.2948H16.4749C16.4302 18.5428 14.9941 17.1304 13.2314 17.1304H7.24762C5.45689 17.1302 4 18.5871 4 20.3778V30.0953C4 31.8861 5.45689 33.343 7.24762 33.343H13.2314C15.0222 33.343 16.479 31.8861 16.479 30.0953V29.9847H25.0855L23.4752 83.5603H22.2377C19.5608 83.5603 17.3831 85.738 17.3831 88.4149V91.9548C17.3831 92.7038 17.9904 93.3111 18.7394 93.3111H21.1745C21.9236 93.3111 22.5309 92.7038 22.5309 91.9548C22.5309 91.2057 21.9236 90.5984 21.1745 90.5984H20.0958V88.4149C20.0958 87.2338 21.0566 86.273 22.2377 86.273H26.2478H39.4068C40.5879 86.273 41.5487 87.2338 41.5487 88.4149V90.5984H26.5997C25.8506 90.5984 25.2434 91.2057 25.2434 91.9548C25.2434 92.7038 25.8506 93.3111 26.5997 93.3111H42.9051C43.6541 93.3111 44.2614 92.7038 44.2614 91.9548V88.4149C44.2614 85.738 42.0837 83.5603 39.4068 83.5603H36.7203L35.1101 29.9847H42.6108V36.7495C42.6108 38.6878 44.1878 40.2648 46.1261 40.2648H56.5325C58.4708 40.2648 60.0478 38.6878 60.0478 36.7495V29.9847H74.0721V44.8682C73.9559 44.9299 73.8464 45.0095 73.7484 45.1075L62.7952 56.0608H60.0711C58.6921 56.0608 57.5702 57.1827 57.5702 58.5617V61.565H56.3073C54.8796 61.565 53.7182 62.7264 53.7182 64.1541V66.7055C53.7182 68.1331 54.8796 69.2945 56.3073 69.2945H59.9467C60.6957 69.2945 61.303 68.6872 61.303 67.9381C61.303 67.1891 60.6957 66.5818 59.9467 66.5818H56.4309V64.2776H93.2868V66.5818H65.3726C64.6235 66.5818 64.0162 67.1891 64.0162 67.9381C64.0162 68.6872 64.6235 69.2945 65.3726 69.2945H93.4108C94.8384 69.2945 96 68.1331 96 66.7055V64.1541C96 62.7265 94.8384 61.565 93.4108 61.565ZM29.6516 5.40018H30.5378L31.8391 20.2948H28.3503L29.6516 5.40018ZM13.7664 30.0953C13.7664 30.3903 13.5264 30.6303 13.2314 30.6303H7.24762C6.95266 30.6303 6.71268 30.3903 6.71268 30.0953V20.3778C6.71268 20.0828 6.95266 19.8429 7.24762 19.8429H13.2314C13.5264 19.8429 13.7664 20.0828 13.7664 20.3778V21.6511V28.6283V30.0953ZM16.479 23.0075H43.9675C44.7166 23.0075 45.3239 22.4002 45.3239 21.6511C45.3239 20.9021 44.7166 20.2948 43.9675 20.2948H34.562L33.323 6.11524L69.0454 20.2948H49.3929C48.6438 20.2948 48.0366 20.9021 48.0366 21.6511C48.0366 22.4002 48.6438 23.0075 49.3929 23.0075H76.1307C76.1332 23.0075 76.1358 23.0078 76.1383 23.0078C76.1399 23.0078 76.1414 23.0075 76.143 23.0075H78.6016L81.9176 27.272H58.6916H43.9674H16.4789V23.0075H16.479ZM27.4746 40.7951L31.5679 43.7586L27.2044 49.7854L27.4746 40.7951ZM27.7099 69.0453L33.3584 61.9883L33.7009 73.3859L27.7099 69.0453ZM28.13 53.1327L32.8946 46.5517L33.2027 56.8078L28.13 53.1327ZM27.0272 55.6837L32.0294 59.3077L26.7189 65.942L27.0272 55.6837ZM32.0294 75.5246L26.2125 82.7917L26.5501 71.555L32.0294 75.5246ZM28.5158 38.1999L32.4855 32.9353L32.7356 41.2551L28.5158 38.1999ZM31.3127 29.9847L27.6537 34.8375L27.7994 29.9847H31.3127ZM29.072 83.5601L33.8283 77.6182L34.0068 83.5601H29.072ZM57.3356 36.7495C57.3356 37.1921 56.9756 37.5521 56.533 37.5521H46.1267C45.6841 37.5521 45.3241 37.1921 45.3241 36.7495V29.9847H57.3356V36.7495ZM84.0501 56.0608H76.7854V48.796L84.0501 56.0608ZM74.0727 48.6202V56.0609H66.632L74.0727 48.6202ZM60.2834 58.7734H90.2129V61.565H60.2834V58.7734Z" fill="#E2E2E2" stroke="white" stroke-width="0.6"/>
</g>
<defs>
<clipPath id="clip0_235_5577">
<rect width="78" height="78" fill="white"/>
</clipPath>
</defs>
</svg>
