<svg width="76" height="68" viewBox="0 0 76 68" fill="none" xmlns="http://www.w3.org/2000/svg">
<g clip-path="url(#clip0_235_5692)">
<path d="M90.9537 35.7279C90.5199 34.4159 89.6012 33.3513 88.3666 32.7302L44.8832 10.8553C43.6485 10.2341 42.2464 10.1312 40.9343 10.5648C39.6275 10.9969 38.5661 11.91 37.9442 13.137L33.6191 21.2656L30.0044 19.8101C27.3582 18.7446 24.3385 20.0307 23.273 22.6768L11.9316 50.8436C10.8661 53.4898 12.1521 56.5095 14.7983 57.575L59.9513 75.7559C62.5976 76.8215 65.6173 75.5354 66.6828 72.8893L68.5226 68.3201L70.071 69.099C70.2016 69.1647 70.3337 69.2244 70.467 69.2781C72.934 70.2714 75.8013 69.2202 77.0176 66.8024L90.6635 39.6771C91.2844 38.4424 91.3875 37.04 90.9537 35.7279ZM28.9994 22.3061L74.1524 40.487C75.4223 40.9983 76.0396 42.4476 75.5283 43.7175L74.4948 46.2841L24.7355 26.2484L25.7689 23.6818C26.2803 22.4119 27.7295 21.7947 28.9994 22.3061ZM23.7305 28.7443L73.4898 48.78L71.405 53.9577L21.6457 33.922L23.7305 28.7443ZM60.9563 73.26L15.8033 55.0791C14.5334 54.5677 13.9162 53.1185 14.4275 51.8486L20.6407 36.4179L70.4 56.4536L64.1869 71.8843C63.6755 73.1542 62.2262 73.7713 60.9563 73.26ZM88.2598 38.4677L74.614 65.5931C73.9987 66.8161 72.5027 67.3109 71.2801 66.6953L69.5311 65.8154L78.0242 44.7225C79.0897 42.0763 77.8037 39.0566 75.1574 37.991L36.1293 22.2763L40.3262 14.3885C40.331 14.3794 40.3357 14.3704 40.3403 14.3611C40.9556 13.1381 42.4508 12.6432 43.6741 13.259L87.1576 35.1339C87.7501 35.432 88.191 35.9429 88.3991 36.5726C88.6072 37.2023 88.5579 37.8752 88.2598 38.4677Z" fill="#E2E2E2"/>
<path d="M63.6825 58.0613L51.6718 53.2252C50.9825 52.9476 50.1989 53.2814 49.9213 53.9706L46.7662 61.8065C46.4887 62.4958 46.8224 63.2794 47.5117 63.557L59.5224 68.3931C60.2116 68.6706 60.9953 68.3369 61.2728 67.6476L64.428 59.8117C64.7055 59.1225 64.3717 58.3388 63.6825 58.0613ZM59.2794 65.3947L49.7646 61.5635L51.9148 56.2236L61.4295 60.0547L59.2794 65.3947Z" fill="#E2E2E2"/>
</g>
<defs>
<clipPath id="clip0_235_5692">
<rect width="76" height="68" fill="white"/>
</clipPath>
</defs>
</svg>
