<svg width="75" height="68" viewBox="0 0 75 68" fill="none" xmlns="http://www.w3.org/2000/svg">
<g clip-path="url(#clip0_235_5631)">
<path d="M39 78.0107C38.3939 78.0107 37.8127 77.7699 37.3842 77.3414C36.9556 76.9128 36.7148 76.3316 36.7148 75.7255V40.8281C36.7148 40.2221 36.9556 39.6408 37.3842 39.2123C37.8127 38.7837 38.3939 38.543 39 38.543C39.6061 38.543 40.1873 38.7837 40.6158 39.2123C41.0444 39.6408 41.2852 40.2221 41.2852 40.8281V75.7255C41.2852 76.0256 41.226 76.3228 41.1112 76.6C40.9964 76.8773 40.828 77.1292 40.6158 77.3414C40.4037 77.5536 40.1517 77.7219 39.8745 77.8367C39.5972 77.9516 39.3001 78.0107 39 78.0107Z" fill="#E2E2E2" stroke="white" stroke-width="1.8"/>
<path d="M16.6244 43.1129C16.1623 43.1127 15.711 42.9724 15.3303 42.7105C14.9495 42.4485 14.6571 42.0773 14.4916 41.6458C12.5422 36.5581 12.1118 31.0139 13.2528 25.6864C14.3937 20.3588 17.0569 15.4771 20.919 11.6341C21.351 11.2187 21.9288 10.9897 22.528 10.9962C23.1272 11.0028 23.6998 11.2445 24.1226 11.6692C24.5453 12.0939 24.7843 12.6677 24.788 13.267C24.7918 13.8662 24.56 14.4429 24.1426 14.8729C20.9075 18.0914 18.6766 22.1802 17.7208 26.6424C16.7651 31.1046 17.1257 35.7484 18.7588 40.0096C18.8918 40.3557 18.9385 40.729 18.895 41.0972C18.8516 41.4654 18.7191 41.8175 18.5092 42.1231C18.2993 42.4287 18.0181 42.6787 17.69 42.8514C17.3619 43.0241 16.9967 43.1143 16.626 43.1144L16.6244 43.1129Z" fill="#E2E2E2" stroke="white" stroke-width="1.8"/>
<path d="M22.529 52.157C21.9251 52.1573 21.3456 51.9185 20.9172 51.4928C20.25 50.8286 19.6116 50.1217 19.0175 49.4057C18.632 48.9376 18.4483 48.3356 18.5067 47.732C18.5652 47.1285 18.861 46.5729 19.329 46.1874C19.7971 45.802 20.3991 45.6182 21.0027 45.6767C21.6062 45.7351 22.1618 46.0309 22.5473 46.499C23.0455 47.1083 23.5832 47.6949 24.1423 48.2524C24.4629 48.5716 24.6815 48.9787 24.7705 49.4222C24.8595 49.8657 24.8149 50.3257 24.6423 50.7438C24.4697 51.1619 24.1769 51.5194 23.801 51.771C23.425 52.0226 22.9829 52.1569 22.5305 52.157H22.529Z" fill="#E2E2E2" stroke="white" stroke-width="1.8"/>
<path d="M10.6636 9.91413C10.2332 9.91403 9.81154 9.79239 9.44723 9.56321C9.08293 9.33402 8.79076 9.00662 8.60435 8.61868C8.41795 8.23075 8.34488 7.79806 8.39358 7.37042C8.44228 6.94279 8.61075 6.5376 8.87961 6.20151C9.84792 4.99113 10.884 3.83655 11.9828 2.74331C12.4125 2.31583 12.9945 2.07656 13.6006 2.07813C14.2067 2.0797 14.7873 2.32199 15.2148 2.75169C15.6423 3.18138 15.8816 3.76329 15.88 4.36941C15.8784 4.97552 15.6361 5.55618 15.2064 5.98366C14.2303 6.95574 13.3092 7.9816 12.4475 9.05643C12.2335 9.32399 11.962 9.54 11.6532 9.68846C11.3444 9.83693 11.0062 9.91405 10.6636 9.91413Z" fill="#E2E2E2" stroke="white" stroke-width="1.8"/>
<path d="M13.5955 61.0503C12.9913 61.0501 12.4118 60.8108 11.9837 60.3845C6.06296 54.5036 2.09671 46.9422 0.624032 38.7281C-0.848648 30.5141 0.243678 22.0457 3.75254 14.4742C3.87493 14.1961 4.05157 13.9451 4.27212 13.736C4.49267 13.527 4.75271 13.364 5.03701 13.2567C5.32132 13.1493 5.62418 13.0998 5.92786 13.1109C6.23155 13.122 6.52997 13.1936 6.80565 13.3215C7.08134 13.4494 7.32875 13.6309 7.53341 13.8556C7.73807 14.0802 7.89586 14.3434 7.99757 14.6298C8.09927 14.9161 8.14283 15.2199 8.1257 15.5233C8.10857 15.8267 8.0311 16.1237 7.89781 16.3968C1.54508 30.0955 4.48226 46.4664 15.2073 57.1457C15.5278 57.4649 15.7465 57.872 15.8355 58.3155C15.9245 58.759 15.8799 59.2189 15.7073 59.6371C15.5346 60.0552 15.2418 60.4127 14.8659 60.6643C14.49 60.9158 14.0478 61.0502 13.5955 61.0503Z" fill="#E2E2E2" stroke="white" stroke-width="1.8"/>
<path d="M57.4813 17.772C57.1378 17.7718 56.7987 17.6942 56.4893 17.5449C56.1799 17.3957 55.9082 17.1785 55.6943 16.9097C55.1237 16.1969 54.5134 15.5169 53.8662 14.8729C53.4488 14.4429 53.217 13.8662 53.2207 13.267C53.2245 12.6677 53.4635 12.0939 53.8862 11.6692C54.3089 11.2445 54.8816 11.0028 55.4808 10.9962C56.08 10.9897 56.6578 11.2187 57.0898 11.6341C57.8597 12.4014 58.585 13.2122 59.2622 14.0624C59.5302 14.3987 59.6979 14.8037 59.7461 15.231C59.7942 15.6583 59.7208 16.0905 59.5344 16.4779C59.3479 16.8654 59.0559 17.1923 58.6919 17.4212C58.3279 17.6502 57.9067 17.7717 57.4767 17.772H57.4813Z" fill="#E2E2E2" stroke="white" stroke-width="1.8"/>
<path d="M55.48 52.1553C55.0276 52.1552 54.5855 52.0209 54.2096 51.7693C53.8336 51.5177 53.5408 51.1602 53.3682 50.7421C53.1956 50.324 53.151 49.864 53.24 49.4205C53.329 48.977 53.5476 48.5699 53.8682 48.2507C56.9307 45.2165 59.0987 41.3976 60.1347 37.2128C61.1706 33.028 61.0344 28.6388 59.741 24.5263C59.5592 23.9479 59.6146 23.3209 59.895 22.7834C60.1754 22.2459 60.6579 21.8417 61.2363 21.6599C61.8147 21.4781 62.4416 21.5335 62.9791 21.8139C63.5167 22.0943 63.9208 22.5768 64.1026 23.1552C65.6498 28.0663 65.8142 33.3088 64.5781 38.3073C63.3419 43.3058 60.7528 47.8672 57.0948 51.4911C56.6657 51.9175 56.085 52.1564 55.48 52.1553Z" fill="#E2E2E2" stroke="white" stroke-width="1.8"/>
<path d="M72.0595 50.2371C71.6742 50.2369 71.2952 50.1394 70.9577 49.9534C70.6203 49.7675 70.3353 49.4992 70.1293 49.1736C69.9234 48.848 69.803 48.4756 69.7796 48.091C69.7562 47.7064 69.8303 47.3221 69.9953 46.9739C70.1994 46.5428 70.3974 46.101 70.5848 45.6607C76.3739 32.0259 73.3194 16.4518 62.8001 5.98278C62.5873 5.77092 62.4183 5.51922 62.3029 5.24206C62.1874 4.9649 62.1276 4.66771 62.127 4.36745C62.1263 4.06719 62.1848 3.76975 62.2991 3.4921C62.4135 3.21446 62.5813 2.96205 62.7932 2.74928C63.0051 2.53652 63.2568 2.36757 63.5339 2.25208C63.8111 2.13658 64.1083 2.07681 64.4085 2.07618C64.7088 2.07554 65.0062 2.13405 65.2839 2.24837C65.5615 2.36268 65.8139 2.53056 66.0267 2.74243C71.7874 8.46491 75.7014 15.7821 77.2638 23.7503C78.8263 31.7184 77.9655 39.9719 74.7926 47.4462C74.5823 47.9428 74.3584 48.441 74.1283 48.927C73.9433 49.3191 73.6506 49.6506 73.2842 49.8826C72.9179 50.1145 72.4931 50.2375 72.0595 50.2371Z" fill="#E2E2E2" stroke="white" stroke-width="1.8"/>
<path d="M64.4151 61.0491C63.9626 61.0493 63.5203 60.9152 63.1441 60.6638C62.7679 60.4123 62.4749 60.0548 62.3021 59.6366C62.1293 59.2184 62.0845 58.7584 62.1735 58.3147C62.2625 57.8711 62.4811 57.4638 62.8018 57.1446C63.808 56.1427 64.7556 55.0837 65.6399 53.9728C65.8272 53.7379 66.0589 53.5422 66.3218 53.3969C66.5847 53.2515 66.8736 53.1594 67.1721 53.1257C67.4706 53.0921 67.7728 53.1175 68.0614 53.2006C68.3501 53.2838 68.6195 53.4229 68.8544 53.6102C69.0893 53.7974 69.285 54.0291 69.4303 54.292C69.5756 54.5549 69.6678 54.8438 69.7014 55.1423C69.7351 55.4408 69.7096 55.743 69.6265 56.0317C69.5434 56.3203 69.4042 56.5898 69.217 56.8246C68.2231 58.0738 67.158 59.2646 66.0269 60.391C65.5975 60.8145 65.0182 61.051 64.4151 61.0491Z" fill="#E2E2E2" stroke="white" stroke-width="1.8"/>
<path d="M38.95 43.1148C36.7113 43.1148 34.5229 42.451 32.6614 41.2072C30.8 39.9635 29.3492 38.1957 28.4925 36.1274C27.6358 34.0591 27.4116 31.7832 27.8484 29.5875C28.2851 27.3918 29.3632 25.3749 30.9462 23.7919C32.5292 22.2089 34.5461 21.1308 36.7418 20.6941C38.9375 20.2573 41.2134 20.4815 43.2817 21.3382C45.35 22.1949 47.1178 23.6457 48.3615 25.5071C49.6053 27.3686 50.2691 29.557 50.2691 31.7957C50.2655 34.7966 49.0718 37.6736 46.9498 39.7955C44.8279 41.9175 41.9509 43.1112 38.95 43.1148ZM38.95 25.0469C37.6152 25.0469 36.3104 25.4427 35.2006 26.1843C34.0907 26.9258 33.2257 27.9799 32.7149 29.213C32.2041 30.4462 32.0704 31.8032 32.3309 33.1123C32.5913 34.4215 33.234 35.624 34.1779 36.5679C35.1217 37.5117 36.3242 38.1545 37.6334 38.4149C38.9425 38.6753 40.2995 38.5416 41.5327 38.0308C42.7659 37.52 43.8199 36.655 44.5615 35.5452C45.303 34.4353 45.6988 33.1305 45.6988 31.7957C45.6984 30.0054 44.9875 28.2884 43.7221 27.0219C42.4567 25.7553 40.7403 25.0428 38.95 25.0408V25.0469Z" fill="#E2E2E2" stroke="white" stroke-width="1.8"/>
</g>
<defs>
<clipPath id="clip0_235_5631">
<rect width="75" height="68" fill="white"/>
</clipPath>
</defs>
</svg>
