<svg width="75" height="68" viewBox="0 0 75 68" fill="none" xmlns="http://www.w3.org/2000/svg">
<g clip-path="url(#clip0_235_5585)">
<path d="M78.591 18.0138C78.1873 15.4205 75.9889 13.4259 73.3665 13.2727C67.532 12.9298 53.0735 11.2958 44.8684 3.55527C44.485 3.1933 43.9901 3.02371 43.5003 3.04016C43.0105 3.02371 42.5156 3.19204 42.1309 3.554C33.9271 11.2958 19.4686 12.9298 13.6328 13.2727C11.0104 13.4271 8.81331 15.4205 8.40958 18.0138C6.85412 27.9932 4.71901 62.0841 42.5587 81.7494C43.0763 82.019 43.8673 82.0493 44.4419 81.7494C82.2803 62.0841 80.1465 27.9932 78.591 18.0138ZM43.5003 77.9361C8.76901 59.3757 10.7155 27.873 12.1609 18.5985C12.2925 17.7581 13.0051 17.1139 13.8556 17.0633C19.8344 16.7114 34.2815 15.0484 43.5003 7.38125C52.7191 15.0484 67.1662 16.7114 73.1451 17.0633C73.9968 17.1139 74.7081 17.7581 74.8397 18.5985C76.2851 27.873 78.2329 59.3757 43.5003 77.9361Z" fill="#E2E2E2" stroke="white"/>
<path d="M56.467 23.4132C51.8285 22.0564 46.6483 23.7486 43.4994 27.3999C40.2353 23.6144 35.3627 21.9982 30.5318 23.4132C26.0464 24.7256 23.1633 27.9112 22.4141 32.3839C21.8091 35.991 22.3824 39.5157 24.1644 43.1607C25.4528 45.797 27.3475 47.9068 29.1763 49.8432C32.491 53.3503 35.2906 55.7284 37.9965 58.0293C39.3368 59.1671 40.7213 60.3441 42.1388 61.6376C42.8514 62.2881 44.1436 62.2881 44.8574 61.6376C46.2749 60.3454 47.6608 59.1683 48.9998 58.0293C51.707 55.7296 54.5053 53.3515 57.8199 49.8432C59.5703 47.9929 61.5434 45.7983 62.8331 43.1607C64.6138 39.5157 65.1859 35.9897 64.5834 32.3852C63.8355 27.9112 60.9524 24.7256 56.467 23.4132ZM59.4235 41.4939C58.3692 43.6505 56.691 45.5123 55.0634 47.236C51.8905 50.5912 49.2922 52.7997 46.5445 55.1361C45.5586 55.9739 44.5385 56.8535 43.5007 57.7686C42.4628 56.8535 41.4428 55.9739 40.4568 55.1361C37.7066 52.7985 35.1096 50.5912 31.9366 47.236C30.3091 45.5135 28.6308 43.6505 27.5766 41.4939C26.154 38.5855 25.6908 35.81 26.1603 33.0117C26.6704 29.9679 28.4992 27.9644 31.5975 27.0582C34.8805 26.0988 37.7054 26.8785 40.2341 29.4413C40.6176 29.8299 40.9897 30.302 41.3833 30.8019C42.7615 32.5485 44.1398 32.6788 45.6168 30.8019C46.0104 30.302 46.3812 29.8299 46.766 29.4413C49.2947 26.8772 52.1196 26.0976 55.4013 27.0582C58.4996 27.9644 60.3309 29.9666 60.8397 33.0117C61.308 35.8087 60.8448 38.583 59.4235 41.4939Z" fill="#E2E2E2" stroke="white"/>
<path d="M47.9106 40.6014H45.3983V38.0879C45.3983 37.0387 44.5491 36.1895 43.4999 36.1895C42.4507 36.1895 41.6014 37.0387 41.6014 38.0879V40.6014H39.0879C38.0387 40.6014 37.1895 41.4507 37.1895 42.4999C37.1895 43.5491 38.0387 44.3983 39.0879 44.3983H41.6014V46.9106C41.6014 47.9585 42.4507 48.809 43.4999 48.809C44.5491 48.809 45.3983 47.9585 45.3983 46.9106V44.3983H47.9106C48.9585 44.3983 49.809 43.5491 49.809 42.4999C49.809 41.4519 48.9585 40.6014 47.9106 40.6014Z" fill="#E2E2E2" stroke="white"/>
</g>
<defs>
<clipPath id="clip0_235_5585">
<rect width="75" height="68" fill="white"/>
</clipPath>
</defs>
</svg>
