<svg width="75" height="68" viewBox="0 0 75 68" fill="none" xmlns="http://www.w3.org/2000/svg">
<g clip-path="url(#clip0_235_5649)">
<path d="M44.1604 46.4127C43.3509 45.1799 41.9753 44.4375 40.5005 44.4375C39.0257 44.4375 37.6501 45.1799 36.8406 46.4127L24.639 64.7442C23.7111 66.1377 23.6266 67.9293 24.4193 69.404C25.1695 70.8523 26.6677 71.7585 28.2988 71.7505H52.7019C54.3321 71.7594 55.83 70.8553 56.5814 69.4087C57.3741 67.9336 57.2896 66.1418 56.3617 64.7478L44.1604 46.4127ZM54.4917 68.2876C54.1484 68.955 53.461 69.3749 52.7104 69.3754H28.2989C27.5483 69.3749 26.861 68.9552 26.5177 68.2876C26.1328 67.5854 26.1727 66.7269 26.6209 66.0634L38.8225 47.7284C39.192 47.1577 39.8254 46.8131 40.5052 46.8131C41.185 46.8131 41.8185 47.1577 42.188 47.7284L54.3895 66.0634C54.8364 66.7278 54.8744 67.5862 54.4881 68.2876H54.4917Z" fill="#E2E2E2"/>
<path d="M42.8747 58.6863H39.0343L41.5174 54.5478C41.7452 54.1838 41.7587 53.7253 41.5528 53.3486C41.347 52.9719 40.9538 52.7354 40.5244 52.7305C40.0951 52.7257 39.6966 52.9528 39.4821 53.3248L35.9196 59.2623C35.6992 59.6291 35.6932 60.0861 35.9039 60.4585C36.1146 60.8309 36.5094 61.0612 36.9373 61.0614H40.7777L38.2947 65.1999C38.0669 65.5638 38.0534 66.0224 38.2592 66.3991C38.465 66.7758 38.8583 67.0123 39.2876 67.0172C39.7169 67.022 40.1155 66.7949 40.3299 66.4229L43.8924 60.4854C44.1128 60.1186 44.1188 59.6616 43.9081 59.2892C43.6973 58.9166 43.3026 58.6863 42.8747 58.6863Z" fill="#E2E2E2"/>
<path d="M47.4421 18.0334C47.8154 17.1126 47.5821 16.0571 46.8556 15.3794L43.9758 12.9391C43.5466 12.5749 43.0021 12.375 42.4392 12.375H41.6875V11.1875C41.6875 10.5317 41.1559 10 40.5 10C39.8441 10 39.3125 10.5317 39.3125 11.1875V12.3749H38.5608C37.9983 12.3752 37.4542 12.575 37.0253 12.9389L34.0732 15.4458C33.4893 16.0306 33.2513 16.8772 33.4451 17.6807C33.639 18.4842 34.2367 19.129 35.0231 19.3834L34.073 20.1957C33.4891 20.7806 33.2512 21.6271 33.445 22.4306C33.6388 23.2341 34.2365 23.879 35.0229 24.1334L34.0729 24.9457C33.3942 25.6246 33.1909 26.6454 33.5579 27.5325C33.9248 28.4197 34.7897 28.9987 35.7496 28.9998H36.9371V31.375H27.437V29H28.6245C29.5853 29 30.4515 28.4212 30.819 27.5333C31.1923 26.6125 30.959 25.557 30.2325 24.8793L29.3502 24.1324C30.0147 23.921 30.5521 23.4276 30.8192 22.7834C31.1924 21.8626 30.9592 20.807 30.2326 20.1293L29.348 19.3812C30.0125 19.1698 30.5499 18.6764 30.817 18.0322C31.1902 17.1114 30.957 16.0558 30.2304 15.3781L27.3508 12.9391C26.9216 12.5749 26.3771 12.375 25.8142 12.375H25.0624V11.1875C25.0624 10.5316 24.5307 10 23.875 10C23.2192 10 22.6875 10.5317 22.6875 11.1875V12.3749H21.9358C21.3733 12.3752 20.8292 12.575 20.4003 12.9389L17.4483 15.4459C16.8656 16.0318 16.6293 16.8783 16.8244 17.6812C17.0195 18.4842 17.6178 19.1279 18.4042 19.3812L17.4483 20.1935C16.8645 20.7793 16.6274 21.6266 16.8225 22.4303C17.0176 23.234 17.6168 23.8783 18.4042 24.1313L17.4483 24.9436C16.7678 25.6223 16.5635 26.6441 16.9306 27.5324C17.2977 28.4205 18.164 29 19.125 29.0001H20.3125V31.375H15.5625C13.5951 31.375 12 32.9701 12 34.9375C12 36.9049 13.5951 38.5 15.5625 38.5H16.75V74.125H15.5625C13.5991 74.1347 12.0097 75.7241 12 77.6875C12 79.655 13.5951 81.25 15.5625 81.25H65.4375C67.4009 81.2403 68.9903 79.6509 69 77.6875C69 75.7201 67.405 74.125 65.4375 74.125H64.25V38.5H65.4375C67.405 38.5 69 36.9049 69 34.9375C69 32.9699 67.405 31.375 65.4375 31.375H60.6875V29H61.875C62.8358 29 63.702 28.4212 64.0696 27.5333C64.4428 26.6125 64.2096 25.557 63.483 24.8793L62.6007 24.1324C63.2652 23.921 63.8027 23.4276 64.0697 22.7834C64.4429 21.8626 64.2097 20.807 63.4831 20.1293L62.5985 19.3812C63.263 19.1698 63.8004 18.6764 64.0675 18.0322C64.4407 17.1114 64.2075 16.0558 63.4809 15.3781L60.6009 12.9391C60.1717 12.5749 59.6272 12.375 59.0642 12.375H58.3125V11.1875C58.3125 10.5317 57.7809 10 57.125 10C56.4692 10 55.9376 10.5317 55.9376 11.1875V12.3749H55.1859C54.6234 12.3752 54.0793 12.575 53.6504 12.9389L50.6982 15.4458C50.1142 16.0306 49.8763 16.8772 50.0702 17.6807C50.264 18.4842 50.8617 19.129 51.6481 19.3834L50.6981 20.1957C50.114 20.7806 49.8762 21.6271 50.07 22.4306C50.2639 23.2341 50.8616 23.879 51.648 24.1334L50.6979 24.9457C50.0193 25.6246 49.8159 26.6454 50.1829 27.5325C50.5499 28.4197 51.4147 28.9987 52.3747 28.9998H53.5621V31.375H44.0625V29H45.25C46.2107 29 47.077 28.4212 47.4445 27.5333C47.8177 26.6125 47.5845 25.557 46.858 24.8793L45.9757 24.1324C46.6402 23.921 47.1776 23.4276 47.4447 22.7834C47.8179 21.8626 47.5846 20.807 46.8581 20.1293L45.9734 19.3812C46.6374 19.1702 47.1748 18.6771 47.4421 18.0334ZM38.5608 14.75H42.4392L45.25 17.125H38.125C38.0579 17.1308 37.9915 17.1428 37.9267 17.1606L35.6799 17.1915L38.5608 14.75ZM45.25 21.875H38.125C38.0579 21.8808 37.9915 21.8928 37.9267 21.9106L35.6799 21.9415L38.5608 19.4999H42.4403L45.25 21.875ZM21.5 21.875C21.433 21.8808 21.3666 21.8928 21.3017 21.9106L19.055 21.9415L21.9359 19.4999H25.8154L28.625 21.875H21.5ZM21.9358 14.75H25.8142L28.625 17.125H21.5C21.433 17.1308 21.3666 17.1428 21.3017 17.1606L19.055 17.1915L21.9358 14.75ZM19.055 26.6916L21.9359 24.25H25.8154L28.625 26.625H23.8751L21.6509 26.6559C21.6015 26.642 21.551 26.6317 21.5 26.625C21.4415 26.6323 21.3836 26.6438 21.3267 26.6594L19.055 26.6916ZM22.6875 29H25.0625V31.375H22.6875V29ZM61.875 74.125H31C30.3441 74.125 29.8125 74.6567 29.8125 75.3125C29.8125 75.9683 30.3442 76.4999 31 76.4999H65.4375C66.0934 76.4999 66.625 77.0315 66.625 77.6874C66.6259 78.0073 66.4944 78.3135 66.2616 78.5329C66.0451 78.7544 65.7473 78.878 65.4375 78.875H15.5625C14.9066 78.875 14.375 78.3434 14.375 77.6875C14.3741 77.3676 14.5056 77.0614 14.7384 76.842C14.9549 76.6204 15.2527 76.4968 15.5625 76.4999H25.0625C25.7184 76.4999 26.25 75.9682 26.25 75.3125C26.25 74.6566 25.7183 74.125 25.0625 74.125H19.125V38.5H22.6875V40.875C22.6875 41.5309 23.2192 42.0625 23.875 42.0625C24.5307 42.0625 25.0624 41.5308 25.0624 40.875V38.5H39.3124V40.875C39.3124 41.5309 39.8441 42.0625 40.4999 42.0625C41.1557 42.0625 41.6873 41.5308 41.6873 40.875V38.5H55.9373V40.875C55.9373 41.5309 56.469 42.0625 57.1248 42.0625C57.7806 42.0625 58.3122 41.5308 58.3122 40.875V38.5H61.8747V74.125H61.875ZM66.625 34.9375C66.625 35.5934 66.0932 36.125 65.4375 36.125H15.5625C14.9066 36.125 14.375 35.5934 14.375 34.9375C14.375 34.2816 14.9068 33.75 15.5625 33.75H65.4375C66.0934 33.75 66.625 34.2816 66.625 34.9375ZM54.75 21.875C54.6829 21.8808 54.6166 21.8928 54.5517 21.9106L52.305 21.9415L55.1859 19.4999H59.0654L61.875 21.875H54.75ZM55.1859 14.75H59.0642L61.875 17.125H54.75C54.6829 17.1308 54.6166 17.1428 54.5517 17.1606L52.305 17.1915L55.1859 14.75ZM52.305 26.6916L55.1859 24.25H59.0654L61.875 26.625H57.125L54.9009 26.6559C54.8515 26.642 54.8009 26.6317 54.75 26.625C54.6914 26.6323 54.6335 26.6438 54.5766 26.6594L52.305 26.6916ZM55.9375 29H58.3125V31.375H55.9375V29ZM41.6875 31.375H39.3124V29H41.6875V31.375ZM40.5 26.625L38.2758 26.6559C38.2264 26.642 38.1759 26.6317 38.125 26.625C38.0664 26.6323 38.0085 26.6438 37.9516 26.6594L35.6799 26.6914L38.5608 24.2499H42.4403L45.25 26.6249H40.5V26.625Z" fill="#E2E2E2"/>
</g>
<defs>
<clipPath id="clip0_235_5649">
<rect width="75" height="68" fill="white"/>
</clipPath>
</defs>
</svg>
