<svg width="76" height="68" viewBox="0 0 76 68" fill="none" xmlns="http://www.w3.org/2000/svg">
<g clip-path="url(#clip0_235_5712)">
<path d="M71.3925 34.7409C71.0164 34.52 70.5516 34.5143 70.1703 34.7261L66.7794 36.6101L65.8393 3.7328C65.8206 3.06575 65.2743 2.53485 64.6071 2.53516H55.9821C55.3149 2.53485 54.7686 3.06575 54.75 3.7328L53.6016 43.9352L49.8214 46.0298V35.803C49.8211 35.1226 49.2691 34.5712 48.5887 34.5715C48.3798 34.5716 48.1744 34.6248 47.9917 34.7261L27.6429 46.0298V35.803C27.6425 35.1226 27.0905 34.5712 26.4101 34.5715C26.2013 34.5716 25.9958 34.6248 25.8131 34.7261L3.63455 47.0476C3.24319 47.2646 3.00015 47.6769 3 48.1244V75.2316C3 75.912 3.55169 76.4637 4.23214 76.4637H70.7679C71.4483 76.4637 72 75.912 72 75.2316V35.803C72 35.3664 71.769 34.9622 71.3925 34.7409ZM57.1798 4.99944H63.4095L63.481 7.46373H57.1096L57.1798 4.99944ZM57.0381 9.92801H63.5512L64.3521 37.958L56.1054 42.5379L57.0381 9.92801ZM36.2679 73.9994H28.875V67.8387H36.2679V73.9994ZM46.125 73.9994H38.7321V67.8387H46.125V73.9994ZM69.5357 73.9994H48.5893V66.6066C48.5893 65.9261 48.0376 65.3744 47.3571 65.3744H27.6429C26.9624 65.3744 26.4107 65.9261 26.4107 66.6066V73.9994H5.46429V48.8502L25.1786 37.8977V48.1244C25.1789 48.8049 25.7309 49.3563 26.4113 49.356C26.6202 49.3558 26.8256 49.3027 27.0083 49.2013L47.3571 37.8977V48.1244C47.3574 48.8049 47.9095 49.3563 48.5899 49.356C48.7987 49.3558 49.0042 49.3027 49.1869 49.2013L60.8072 42.7461L66.2089 39.7459L69.5357 37.8977V73.9994Z" fill="#E2E2E2"/>
<path d="M20.2494 51.8203H10.3923C9.71185 51.8203 9.16016 52.372 9.16016 53.0525V57.981C9.16016 58.6615 9.71185 59.2132 10.3923 59.2132H20.2494C20.9299 59.2132 21.4816 58.6615 21.4816 57.981V53.0525C21.4816 52.372 20.9299 51.8203 20.2494 51.8203ZM19.0173 56.7489H11.6244V54.2846H19.0173V56.7489Z" fill="#E2E2E2"/>
<path d="M42.4291 51.8203H32.572C31.8915 51.8203 31.3398 52.372 31.3398 53.0525V57.981C31.3398 58.6615 31.8915 59.2132 32.572 59.2132H42.4291C43.1096 59.2132 43.6613 58.6615 43.6613 57.981V53.0525C43.6613 52.372 43.1096 51.8203 42.4291 51.8203ZM41.197 56.7489H33.8041V54.2846H41.197V56.7489Z" fill="#E2E2E2"/>
<path d="M64.6069 51.8203H54.7497C54.0693 51.8203 53.5176 52.372 53.5176 53.0525V57.981C53.5176 58.6615 54.0693 59.2132 54.7497 59.2132H64.6069C65.2873 59.2132 65.839 58.6615 65.839 57.981V53.0525C65.839 52.372 65.2873 51.8203 64.6069 51.8203ZM63.3747 56.7489H55.9819V54.2846H63.3747V56.7489Z" fill="#E2E2E2"/>
</g>
<defs>
<clipPath id="clip0_235_5712">
<rect width="76" height="68" fill="white"/>
</clipPath>
</defs>
</svg>
