<svg width="75" height="68" viewBox="0 0 75 68" fill="none" xmlns="http://www.w3.org/2000/svg">
<g clip-path="url(#clip0_235_5742)">
<path d="M45 1C22.9277 1 5 18.9277 5 41C5 63.0723 22.9277 81 45 81C67.0723 81 85 63.0723 85 41C85 18.9277 67.0723 1 45 1ZM45 77.5301C24.8554 77.5301 8.46988 61.1446 8.46988 41C8.46988 20.8554 24.8554 4.46988 45 4.46988C65.1446 4.46988 81.5301 20.8554 81.5301 41C81.5301 61.1446 65.1446 77.5301 45 77.5301Z" fill="#E2E2E2" stroke="white"/>
<path d="M65.8188 32.3248H53.6742V20.1803C53.6742 19.2164 52.9031 18.4453 51.9393 18.4453H38.0598C37.0959 18.4453 36.3248 19.2164 36.3248 20.1803V32.3248H24.1803C23.2164 32.3248 22.4453 33.0959 22.4453 34.0598V47.9393C22.4453 48.9031 23.2164 49.6742 24.1803 49.6742H36.3248V61.8188C36.3248 62.7827 37.0959 63.5538 38.0598 63.5538H51.9393C52.9031 63.5538 53.6742 62.7827 53.6742 61.8188V49.6742H65.8188C66.7827 49.6742 67.5538 48.9031 67.5538 47.9393V34.0598C67.4574 33.0959 66.6863 32.3248 65.8188 32.3248ZM64.1803 46.2044H64.0839H51.9393C50.9754 46.2044 50.2044 46.9754 50.2044 47.9393V60.0839H39.7947V47.9393C39.7947 46.9754 39.0236 46.2044 38.0598 46.2044H25.9152V35.7947H38.0598C39.0236 35.7947 39.7947 35.0236 39.7947 34.0598V21.9152H50.3007V34.0598C50.3007 35.0236 51.0718 35.7947 52.0357 35.7947H64.1803V46.2044Z" fill="#E2E2E2" stroke="white"/>
</g>
<defs>
<clipPath id="clip0_235_5742">
<rect width="75" height="68" fill="white"/>
</clipPath>
</defs>
</svg>
