<svg width="75" height="68" viewBox="0 0 75 68" fill="none" xmlns="http://www.w3.org/2000/svg">
<g clip-path="url(#clip0_235_5766)">
<path d="M26.7352 36.1161C26.2159 36.6338 26.2159 37.4748 26.7352 37.9941C27.2545 38.5119 28.095 38.5119 28.6132 37.9941C29.1326 37.4748 29.1326 36.6338 28.6132 36.1161C28.095 35.5967 27.2545 35.5967 26.7352 36.1161Z" fill="#E2E2E2"/>
<path d="M32.5718 60.2774L35.9217 54.6931L38.0057 56.7771C38.0975 56.8689 38.1992 56.9431 38.3071 57.0023L39.5097 65.4172C39.6653 66.5056 40.9945 66.9368 41.7634 66.1684L53.0327 54.8991C53.2459 54.6858 53.3798 54.4067 53.4135 54.1069L54.7712 41.8917L62.2819 34.3795C65.5799 31.0815 68.206 26.4699 70.0882 20.6729C72.7735 12.4006 72.9925 4.68554 73.0003 4.36077C73.0091 3.99762 72.869 3.64639 72.6117 3.38906C72.3549 3.13174 72.0057 2.99063 71.64 3.00048C71.3157 3.00878 63.6007 3.2272 55.3279 5.9125C49.5308 7.79471 44.9192 10.4214 41.6212 13.7194L34.1111 21.2295L21.8939 22.5872C21.594 22.6204 21.3149 22.7548 21.1017 22.968L9.83233 34.2374C9.47643 34.5933 9.35244 35.1193 9.51171 35.5961C9.67046 36.0734 10.0855 36.42 10.5836 36.491L18.9985 37.6936C19.1619 37.9919 19.1759 37.9208 21.3076 40.079L15.7233 43.4284C15.3726 43.639 15.1386 43.9991 15.0888 44.4053C15.0385 44.811 15.1786 45.2178 15.4675 45.5067L30.494 60.5332C31.1015 61.1407 32.1251 61.0219 32.5718 60.2774ZM41.7634 62.4118L40.8238 55.8376L51.7643 44.8982L50.8247 53.3504L41.7634 62.4118ZM68.1925 17.7525L58.2482 7.80819C63.321 6.39965 67.9928 5.90576 70.2626 5.73819C70.0955 8.00845 69.6011 12.6802 68.1925 17.7525ZM43.4993 15.5974C46.3537 12.743 50.35 10.4245 55.3808 8.69742L67.3038 20.6199C65.5762 25.6507 63.2577 29.647 60.4033 32.5015L42.7024 50.2024L32.3726 39.8726C31.8538 39.3543 31.0128 39.3543 30.494 39.8726C29.9752 40.3914 29.9752 41.2323 30.494 41.7511L40.8238 52.0809L38.9452 53.96L22.0412 37.056L35.6592 23.4386L43.4993 15.5974ZM22.6503 25.176L31.1041 24.2365L20.1632 35.1769L13.589 34.2374L22.6503 25.176ZM23.2438 42.0152L33.9855 52.7569L31.1695 57.4521L18.5492 44.8318L23.2438 42.0152Z" fill="#E2E2E2"/>
<path d="M7.26715 70.6107L21.1009 56.7769C21.6197 56.2586 21.6197 55.4177 21.1009 54.8989C20.5821 54.3801 19.7417 54.3801 19.2229 54.8989L5.3891 68.7326C4.8703 69.2514 4.8703 70.0924 5.3891 70.6112C5.9079 71.1295 6.74835 71.1295 7.26715 70.6107Z" fill="#E2E2E2"/>
<path d="M24.8579 58.6547C24.3391 58.1359 23.4981 58.1359 22.9793 58.6547L14.7797 66.8543C14.2609 67.3731 14.2609 68.2141 14.7797 68.7329C15.2985 69.2512 16.139 69.2512 16.6578 68.7329L24.8579 60.5328C25.3762 60.014 25.3762 59.173 24.8579 58.6547Z" fill="#E2E2E2"/>
<path d="M15.4676 51.143L7.26801 59.3426C6.74921 59.8614 6.74921 60.7024 7.26801 61.2212C7.7868 61.7395 8.62726 61.7395 9.14606 61.2212L17.3462 53.0211C17.8645 52.5028 17.8645 51.6618 17.3462 51.143C16.8274 50.6242 15.9864 50.6242 15.4676 51.143Z" fill="#E2E2E2"/>
<path d="M53.8283 33.4409C56.9343 30.3344 56.9343 25.2792 53.8278 22.1711C50.7202 19.065 45.665 19.0655 42.5584 22.1716C39.4456 25.2849 39.4425 30.3266 42.5584 33.4409C45.6717 36.5553 50.7129 36.5558 53.8283 33.4409ZM44.437 24.0496C46.5075 21.9791 49.8782 21.9791 51.9497 24.0496C54.0202 26.1212 54.0208 29.4918 51.9497 31.5624C49.8735 33.6386 46.5132 33.6402 44.437 31.5624C42.3608 29.4872 42.3597 26.1264 44.437 24.0496Z" fill="#E2E2E2"/>
</g>
<defs>
<clipPath id="clip0_235_5766">
<rect width="75" height="68" fill="white"/>
</clipPath>
</defs>
</svg>
