<svg width="76" height="68" viewBox="0 0 76 68" fill="none" xmlns="http://www.w3.org/2000/svg">
<g clip-path="url(#clip0_235_5702)">
<path d="M86.1323 23.4457C82.2858 18.3177 73.701 16.9002 62.4695 19.4958C62.2286 18.9184 61.9798 18.3513 61.7233 17.7989C62.633 16.8163 63.1795 15.5524 63.2723 14.2167C63.3651 12.8809 62.9986 11.5536 62.2336 10.4547C61.4686 9.3558 60.3511 8.55134 59.0662 8.17469C57.7813 7.79805 56.4062 7.87183 55.169 8.38382C52.6503 6.14012 49.9511 5 47.1315 5C43.8931 5 40.8186 6.4939 37.9937 9.44022C35.6271 11.9081 33.5456 15.2886 31.7931 19.4956C20.5616 16.9004 11.977 18.3179 8.13085 23.4455C3.756 29.2772 6.25875 38.7981 14.8076 49.0625C14.3413 49.6225 13.8898 50.1836 13.4532 50.7461C12.2132 50.4005 10.8941 50.4721 9.69876 50.9498C8.50344 51.4275 7.49826 52.2848 6.83792 53.3897C6.17759 54.4947 5.89872 55.786 6.04422 57.065C6.18973 58.344 6.75156 59.5397 7.64323 60.4681C5.30057 66.223 5.4625 71.1202 8.13067 74.6782C10.7182 78.1278 15.4483 79.8989 21.6872 79.8987C24.7228 79.8987 28.1169 79.4777 31.7931 78.6281C33.5452 82.8351 35.6271 86.2158 37.9937 88.6837C40.8186 91.6311 43.8931 93.125 47.1315 93.125C50.3699 93.125 53.4444 91.6311 56.2693 88.6848C58.6355 86.2171 60.7172 82.8371 62.4693 78.6306C63.2549 78.8122 64.0309 78.9744 64.7971 79.1175C64.9592 80.5003 65.607 81.7805 66.6252 82.73C67.6433 83.6795 68.9656 84.2366 70.3562 84.302C71.7469 84.3674 73.1156 83.9368 74.2183 83.0869C75.321 82.2371 76.0861 81.0233 76.3772 79.6619C80.7651 79.0659 84.1249 77.358 86.1321 74.6795C90.5068 68.848 88.0048 59.327 79.4557 49.0625C88.0044 38.7978 90.5068 29.277 86.1323 23.4457ZM83.7823 25.2082C87.1854 29.7446 84.7693 37.9386 77.4977 46.816C74.2581 43.2886 70.7272 40.0401 66.9425 37.105C66.2526 31.7601 65.0836 26.6789 63.5319 22.2675C73.2455 20.1011 80.7521 21.1684 83.7823 25.2083V25.2082ZM60.6679 75.1429C57.2135 74.1791 53.8319 72.9713 50.5485 71.5289C53.7255 69.8889 56.816 68.0864 59.8075 66.1285C61.0972 65.285 62.3633 64.4166 63.6057 63.5233C62.9725 67.4758 61.9896 71.3644 60.6686 75.1431L60.6679 75.1429ZM33.5937 75.1429C32.2726 71.3642 31.2896 67.4756 30.6562 63.5231C31.8958 64.4135 33.1619 65.2819 34.4545 66.1283C37.4461 68.0863 40.5365 69.8889 43.7135 71.5289C40.4302 72.9714 37.0486 74.1791 33.5944 75.1431L33.5937 75.1429ZM33.5937 22.9817C37.048 23.9456 40.4296 25.1533 43.713 26.5958C40.536 28.2358 37.4455 30.0383 34.454 31.9962C33.1642 32.8396 31.8981 33.708 30.6558 34.6014C31.2895 30.6489 32.2729 26.7604 33.5944 22.9819L33.5937 22.9817ZM36.0615 63.6698C34.0023 62.3233 31.9968 60.905 30.0888 59.4493C29.3114 52.5465 29.3114 45.5782 30.0888 38.6753C31.9968 37.2196 34.0025 35.8012 36.0615 34.4547C39.6144 32.1278 43.3119 30.0294 47.1315 28.1725C50.9509 30.0295 54.6481 32.1279 58.2007 34.455C60.2599 35.8015 62.2655 37.2198 64.1734 38.6755C64.5634 42.1241 64.758 45.5919 64.7565 49.0625C64.7581 52.5331 64.5634 56.0009 64.1734 59.4495C62.2655 60.9052 60.2597 62.3237 58.2007 63.6701C54.6481 65.9971 50.9508 68.0955 47.1315 69.9525C43.3121 68.0955 39.6148 65.9971 36.0623 63.67L36.0615 63.6698ZM26.8883 56.8972C23.9737 54.4845 21.2355 51.8662 18.6948 49.0625C21.236 46.2586 23.9744 43.64 26.8892 41.2267C26.678 43.8049 26.569 46.4276 26.569 49.0625C26.569 51.6974 26.678 54.3192 26.889 56.8974L26.8883 56.8972ZM60.6686 22.9819C61.9897 26.7606 62.9727 30.6492 63.6061 34.6017C62.3665 33.7113 61.1003 32.8429 59.8077 31.9965C56.8162 30.0385 53.7257 28.2359 50.5487 26.5959C53.8323 25.1535 57.2141 23.9458 60.6686 22.9819ZM67.374 41.2276C70.2888 43.6404 73.0272 46.2587 75.5681 49.0625C73.027 51.8664 70.2885 54.485 67.3738 56.8983C67.5849 54.3201 67.694 51.6974 67.694 49.0625C67.694 46.4276 67.5849 43.8058 67.374 41.2276ZM60.3502 13.8125C60.3502 14.3935 60.178 14.9614 59.8552 15.4445C59.5324 15.9276 59.0736 16.3041 58.5369 16.5264C58.0001 16.7487 57.4095 16.8069 56.8397 16.6936C56.2698 16.5802 55.7464 16.3004 55.3356 15.8896C54.9248 15.4788 54.645 14.9554 54.5317 14.3856C54.4183 13.8158 54.4765 13.2251 54.6988 12.6884C54.9212 12.1516 55.2977 11.6928 55.7807 11.3701C56.2638 11.0473 56.8318 10.875 57.4127 10.875C58.1915 10.8759 58.9382 11.1857 59.4888 11.7364C60.0395 12.2871 60.3493 13.0337 60.3502 13.8125ZM47.1315 7.9375C49.0533 7.9375 50.9486 8.70088 52.781 10.2047C52.0078 11.1958 51.5731 12.4089 51.5408 13.6655C51.5085 14.9221 51.8804 16.1559 52.6017 17.1854C53.323 18.2148 54.3557 18.9856 55.5478 19.3844C56.7399 19.7831 58.0285 19.7887 59.2241 19.4004C59.3482 19.6744 59.4706 19.9516 59.5913 20.232C55.3173 21.4515 51.1501 23.0183 47.1315 24.9168C43.1122 23.0178 38.9444 21.4507 34.6697 20.2311C38.0183 12.3944 42.5112 7.9375 47.1315 7.9375ZM10.4807 25.2082C13.5109 21.1691 21.0171 20.101 30.7311 22.2677C29.1797 26.6784 28.0107 31.7584 27.3208 37.1034C23.5363 40.0392 20.0054 43.288 16.7653 46.8155C9.49367 37.9389 7.07739 29.7448 10.4807 25.2082ZM11.8815 53.4688C12.4625 53.4688 13.0304 53.641 13.5135 53.9638C13.9965 54.2866 14.3731 54.7454 14.5954 55.2821C14.8177 55.8189 14.8759 56.4095 14.7625 56.9793C14.6492 57.5491 14.3694 58.0726 13.9586 58.4834C13.5478 58.8942 13.0244 59.174 12.4546 59.2873C11.8847 59.4007 11.2941 59.3425 10.7574 59.1201C10.2206 58.8978 9.76182 58.5213 9.43905 58.0382C9.11627 57.5552 8.94399 56.9872 8.94399 56.4062C8.94491 55.6275 9.25469 54.8808 9.80538 54.3301C10.3561 53.7795 11.1027 53.4697 11.8815 53.4688ZM10.4809 72.917C8.10203 69.7442 8.86523 65.4631 10.1838 62.0299C11.4386 62.4094 12.7843 62.3581 14.0066 61.8842C15.2288 61.4103 16.2574 60.5411 16.9284 59.4149C17.5994 58.2888 17.8743 56.9705 17.7093 55.67C17.5443 54.3695 16.9489 53.1616 16.0179 52.2387C16.2614 51.9284 16.5104 51.6182 16.7649 51.3082C20.0046 54.8361 23.5356 58.085 27.3204 61.0203C28.0104 66.3653 29.1793 71.4464 30.7311 75.8578C21.0177 78.024 13.5111 76.9566 10.4809 72.917ZM47.1315 90.1875C42.5112 90.1875 38.0183 85.7306 34.6697 77.8937C38.9444 76.6743 43.1123 75.1072 47.1315 73.2082C51.1508 75.1071 55.3186 76.6742 59.5933 77.8939C56.2447 85.7306 51.7518 90.1875 47.1315 90.1875ZM70.6315 81.375C70.0505 81.375 69.4826 81.2027 68.9995 80.8799C68.5164 80.5572 68.1399 80.0984 67.9176 79.5616C67.6953 79.0249 67.6371 78.4342 67.7504 77.8644C67.8638 77.2946 68.1435 76.7712 68.5544 76.3604C68.9652 75.9496 69.4886 75.6698 70.0584 75.5564C70.6282 75.4431 71.2189 75.5013 71.7556 75.7236C72.2924 75.9459 72.7512 76.3224 73.0739 76.8055C73.3967 77.2886 73.569 77.8565 73.569 78.4375C73.5681 79.2163 73.2583 79.9629 72.7076 80.5136C72.1569 81.0643 71.4103 81.3741 70.6315 81.375ZM83.7818 72.9174C82.2946 74.902 79.7047 76.2011 76.2484 76.7152C75.8931 75.5579 75.1891 74.5385 74.2324 73.7966C73.2758 73.0547 72.1133 72.6264 70.904 72.5704C69.6947 72.5143 68.4976 72.8332 67.4764 73.4834C66.4553 74.1337 65.6599 75.0835 65.1991 76.203C64.6502 76.0987 64.0945 75.9833 63.5321 75.8569C65.0835 71.4464 66.2522 66.3664 66.9422 61.0216C70.7267 58.0859 74.2577 54.8371 77.4977 51.3095C84.7693 60.1861 87.1854 68.3802 83.7818 72.9174Z" fill="#E2E2E2"/>
<path d="M47.1309 37.3125C44.8069 37.3125 42.5352 38.0016 40.6029 39.2927C38.6706 40.5838 37.1646 42.4189 36.2753 44.566C35.386 46.713 35.1533 49.0755 35.6066 51.3548C36.06 53.6341 37.1791 55.7277 38.8224 57.371C40.4656 59.0143 42.5593 60.1334 44.8386 60.5867C47.1178 61.0401 49.4804 60.8074 51.6274 59.9181C53.7744 59.0288 55.6095 57.5227 56.9006 55.5904C58.1917 53.6582 58.8809 51.3864 58.8809 49.0625C58.8774 45.9473 57.6383 42.9607 55.4355 40.7579C53.2327 38.5551 50.2461 37.316 47.1309 37.3125ZM47.1309 57.875C45.3879 57.875 43.6841 57.3582 42.2349 56.3898C40.7857 55.4215 39.6562 54.0452 38.9892 52.4349C38.3222 50.8246 38.1477 49.0527 38.4877 47.3433C38.8277 45.6338 39.667 44.0636 40.8995 42.8311C42.1319 41.5987 43.7022 40.7594 45.4116 40.4193C47.1211 40.0793 48.893 40.2538 50.5033 40.9208C52.1135 41.5878 53.4899 42.7173 54.4582 44.1665C55.4265 45.6157 55.9434 47.3196 55.9434 49.0625C55.9407 51.3989 55.0114 53.6388 53.3593 55.2909C51.7072 56.943 49.4673 57.8723 47.1309 57.875Z" fill="#E2E2E2"/>
</g>
<defs>
<clipPath id="clip0_235_5702">
<rect width="76" height="68" fill="white"/>
</clipPath>
</defs>
</svg>
