<svg width="76" height="68" viewBox="0 0 76 68" fill="none" xmlns="http://www.w3.org/2000/svg">
<g clip-path="url(#clip0_235_5683)">
<path d="M80.2261 25.5729C74.6332 10.5627 64.566 0 55.6174 0C54.2192 0 53.1006 0.277966 51.982 0.555932C49.4652 1.38983 47.228 3.33559 45.8298 5.83729C29.0512 24.739 5.84069 33.3559 5.56104 33.3559C-0.0318447 35.3017 -1.70971 44.1966 1.92567 53.9254C5.00175 62.2644 10.5946 67.5458 15.6282 67.5458C16.1875 67.5458 17.0265 67.5458 17.5857 67.2678C18.145 66.9898 21.2211 66.4339 26.814 65.6L32.4069 77.2746C32.6865 77.8305 33.2458 78.3864 34.0848 78.6644L43.0334 81.722C43.313 81.722 43.5927 82 43.8723 82C44.4316 82 44.9909 81.722 45.5502 81.4441C46.3891 80.8881 46.6688 79.7763 46.6688 78.9424L44.7112 63.0983C51.7024 62.5424 59.5324 62.2644 67.3624 62.8203H67.9217C69.0403 63.0983 70.1589 63.3763 71.2775 63.3763C72.6757 63.3763 73.7943 63.0983 74.9128 62.8203C79.6668 61.1525 83.0225 55.8712 83.8615 48.3661C84.4207 41.6949 83.3022 33.3559 80.2261 25.5729ZM36.8812 73.661L32.6865 64.4881L39.1184 63.6542L40.5166 74.7729L36.8812 73.661ZM57.0156 46.9763C55.0581 43.9186 53.1006 40.3051 51.4227 35.8576C50.0245 31.6881 48.9059 27.7966 48.6263 23.9051C49.4652 23.9051 50.5838 24.739 51.7024 25.5729C53.6599 27.5186 55.6174 30.5763 56.7359 33.9119C58.9731 40.3051 58.4138 45.3085 57.0156 46.9763ZM16.1875 61.9864C15.9079 61.9864 15.9079 61.9864 15.9079 61.9864C13.9504 62.5424 9.75571 58.9288 6.95926 51.9797C4.44246 45.0305 5.56104 39.1932 7.23891 38.6373C8.07784 38.3593 26.2547 31.6881 42.7537 16.678C42.4741 23.0712 43.5927 30.5763 46.1095 37.8034C49.1856 45.8644 53.3802 52.5356 58.1342 57.261C36.3219 56.9831 17.0265 61.7085 16.1875 61.9864ZM77.9889 47.8102C77.4296 53.0915 75.4721 56.4271 72.6757 57.539C72.1164 57.8169 71.5571 57.817 70.9978 57.817C67.9217 57.817 64.2863 55.5932 60.3713 51.1458C64.2863 47.8102 65.1253 40.3051 62.0492 31.9661C60.3713 27.7966 58.1342 24.1831 55.6174 21.6814C53.3802 19.4576 50.8634 18.3458 48.3466 18.3458C48.3466 17.2339 48.3466 16.4 48.6263 15.5661C49.1856 10.2847 51.1431 6.94915 53.9395 5.83729C54.4988 5.55932 55.0581 5.55932 55.6174 5.55932C61.2103 5.55932 69.8792 13.8983 74.9128 27.5186C77.7093 34.4678 78.8279 41.9729 77.9889 47.8102Z" fill="#E2E2E2" stroke="white" stroke-width="3"/>
</g>
<defs>
<clipPath id="clip0_235_5683">
<rect width="76" height="68" fill="white"/>
</clipPath>
</defs>
</svg>
