<svg width="75" height="68" viewBox="0 0 75 68" fill="none" xmlns="http://www.w3.org/2000/svg">
<g clip-path="url(#clip0_235_5564)">
<path d="M31.919 26.9453H29.5566C28.7315 26.9453 28.0625 27.6143 28.0625 28.4395C28.0625 29.2646 28.7315 29.9336 29.5566 29.9336H31.919C32.7441 29.9336 33.4131 29.2646 33.4131 28.4395C33.4131 27.6143 32.7441 26.9453 31.919 26.9453Z" fill="#E2E2E2" stroke="white" stroke-width="0.5"/>
<path d="M71.5723 29.9336H73.9346C74.7598 29.9336 75.4287 29.2646 75.4287 28.4395C75.4287 27.6143 74.76 26.9453 73.9346 26.9453H71.5723C70.7471 26.9453 70.0781 27.6143 70.0781 28.4395C70.0781 29.2646 70.7471 29.9336 71.5723 29.9336Z" fill="#E2E2E2" stroke="white" stroke-width="0.5"/>
<path d="M101.996 44.7589C101.879 41.5373 99.1122 38.9164 95.8277 38.9164H78.0641C76.4459 38.9164 74.9239 39.5471 73.7782 40.6928C72.6327 41.8383 72.0019 43.3604 72.0019 44.9784C72.0019 46.4785 72.5552 47.9183 73.5584 49.0311C74.8661 50.4858 74.9878 52.9486 73.8276 54.4178C73.8033 54.4469 73.7794 54.4764 73.7552 54.5072C72.5263 56.0197 70.6442 56.7243 68.7569 56.446V54.4578C68.7569 51.4281 66.7384 48.862 63.9758 48.0306V45.1177C63.9758 40.3613 67.8444 36.4919 72.5996 36.4919C74.6402 36.4919 76.4847 35.6414 77.8014 34.278C77.8544 34.2692 77.9131 34.2608 77.9793 34.2523C79.7242 34.0329 81.464 34.7665 82.5243 36.1662C82.8089 36.5417 83.2508 36.7581 83.715 36.7581C83.7757 36.7581 83.8369 36.7543 83.8983 36.7467C84.427 36.6814 84.881 36.3395 85.0898 35.8492C85.6325 34.5746 85.8277 33.1679 85.6538 31.78C85.178 28.0102 82.0846 25.1285 78.3472 24.8703C77.0238 23.1415 74.9402 22.0234 72.5994 22.0234H57.2105C55.0291 22.0234 53.2545 23.7983 53.2545 25.9797C53.2545 27.0364 53.6658 28.0299 54.4131 28.7774C54.7446 29.1089 55.1249 29.3742 55.5383 29.5667C53.5589 31.7338 52.0267 34.2371 51.0013 36.9431C49.9759 34.2371 48.4435 31.7338 46.4643 29.5667C46.8775 29.3742 47.258 29.1089 47.5895 28.7774C48.3367 28.0301 48.7481 27.0366 48.7481 25.9797C48.7481 23.7983 46.9733 22.0234 44.7918 22.0234H29.403C27.063 22.0234 24.9799 23.1407 23.6565 24.8687C19.9094 25.1169 16.8042 28.003 16.3273 31.7814C16.1536 33.1679 16.3486 34.5746 16.8913 35.8492C17.1001 36.3395 17.5539 36.6816 18.0828 36.7467C18.1442 36.7543 18.2053 36.7581 18.2663 36.7581C18.7303 36.7581 19.1725 36.5417 19.457 36.1662C20.5174 34.7665 22.2588 34.0335 23.9986 34.2517C24.0783 34.2618 24.1456 34.272 24.2058 34.2824C25.522 35.6432 27.365 36.4917 29.4032 36.4917C34.1583 36.4917 38.027 40.3611 38.027 45.1175V48.03C35.2646 48.8606 33.2459 51.4263 33.2459 54.4556V56.4458C31.3561 56.7253 29.4721 56.0201 28.2439 54.506C28.2204 54.4762 28.1971 54.4477 28.173 54.4186C27.0116 52.9496 27.1333 50.486 28.4402 49.0323C29.4446 47.9181 29.9977 46.4781 29.9977 44.978C29.9977 43.3598 29.3669 41.8377 28.2214 40.6924C27.0761 39.5469 25.5541 38.9162 23.9358 38.9162H17.5891C16.764 38.9162 16.095 39.5852 16.095 40.4103C16.095 41.2355 16.764 41.9045 17.5891 41.9045H23.936C24.7562 41.9045 25.5276 42.2244 26.1087 42.8055C26.6896 43.3867 27.0098 44.1582 27.0098 44.9782C27.0098 45.738 26.7295 46.4674 26.2195 47.0332C23.9139 49.5973 23.7498 53.6645 25.8455 56.2924C25.8523 56.3008 25.8605 56.3108 25.8673 56.3191L25.8892 56.3456C25.8964 56.355 25.9037 56.3642 25.9109 56.3733C27.5461 58.3984 29.9287 59.5017 32.4214 59.5017C32.6951 59.5017 32.9702 59.4867 33.2459 59.4598V68.1444C32.56 68.1189 31.8384 68.0284 31.1252 68.0206C28.6171 68.0206 26.247 69.2329 24.7851 71.2635C24.7748 71.2781 24.7644 71.2926 24.7546 71.3076C24.1833 72.1646 23.2256 72.6762 22.1929 72.6762C21.5799 72.6762 20.987 72.4943 20.4766 72.1487C19.0801 71.2066 18.7338 69.2546 19.7046 67.7979L20.5553 66.5229C20.9506 65.9304 20.8727 65.1413 20.3692 64.6375C19.8656 64.1337 19.0767 64.0554 18.484 64.4505L16.1446 66.0095C15.636 66.3478 15.0479 66.5265 14.4439 66.5265C13.3972 66.5265 12.4316 66.0036 11.8612 65.1278C10.9476 63.7245 11.3781 61.7996 12.8202 60.8372L14.4696 59.7375C15.0742 59.3343 15.3013 58.5546 15.0073 57.89C14.7132 57.2254 13.9837 56.8686 13.2784 57.0451L8.78227 58.1697C8.53066 58.2318 8.27725 58.2635 8.02923 58.2635C6.60382 58.2635 5.34376 57.2501 5.03318 55.853C4.67458 54.2429 5.73004 52.5955 7.38555 52.181L12.1268 50.9956C12.8589 50.8125 13.3396 50.1125 13.2474 49.3636C13.1551 48.6148 12.519 48.0522 11.7646 48.0522H6.06294C5.22124 48.0522 4.43532 47.7185 3.85042 47.1124C3.26611 46.507 2.96051 45.7092 2.99019 44.8673C3.04936 43.2337 4.47696 41.9047 6.17251 41.9047H11.6128C12.4379 41.9047 13.1069 41.2357 13.1069 40.4105C13.1069 39.5854 12.4379 38.9164 11.6128 38.9164H6.17251C2.83221 38.9164 0.122636 41.4827 0.00390202 44.7603C-0.0546683 46.4214 0.547769 47.9936 1.70045 49.1877C2.36185 49.8728 3.15315 50.3812 4.02115 50.6904C2.43477 52.1224 1.63172 54.327 2.11642 56.502C2.72822 59.2542 5.21487 61.2516 8.02923 61.2516C8.30096 61.2516 8.57449 61.2329 8.84782 61.1954C8.12864 62.9788 8.25016 65.0579 9.35722 66.7584C10.4814 68.4842 12.383 69.5148 14.4439 69.5148C15.0351 69.5148 15.6181 69.4287 16.1775 69.2608C16.0641 71.3353 16.9917 73.4023 18.8036 74.6246C19.8084 75.3047 20.9804 75.6643 22.1929 75.6643C24.2167 75.6643 26.0952 74.6654 27.2239 72.9906C28.1268 71.7492 29.5835 71.0087 31.1254 71.0087C31.8404 71.0302 32.5654 71.1125 33.2461 71.1364V71.4263C33.2461 71.8666 33.2766 72.3015 33.3306 72.7306C29.9353 73.6374 27.4692 76.7217 27.4692 80.3836V85.5491C27.4692 87.8188 29.086 89.7385 31.2043 90.1475V91.229L25.2935 92.7052C24.2335 91.4508 22.667 90.7065 20.983 90.7065C20.4633 90.7065 19.9549 90.7778 19.4674 90.9127L15.1334 83.679C15.6553 82.9973 15.9693 82.148 15.9693 81.2251C15.9693 78.9924 14.153 77.1761 11.9204 77.1761C9.68772 77.1761 7.87145 78.9924 7.87145 81.2251C7.87145 83.4577 9.68772 85.274 11.9204 85.274C12.1423 85.274 12.3586 85.2513 12.571 85.2168L16.9044 92.4494C15.8938 93.5065 15.3372 94.8871 15.3372 96.3523C15.3372 97.8586 15.9237 99.2761 16.9899 100.345C18.0557 101.411 19.4737 101.998 20.9826 101.998C21.6261 101.998 22.2586 101.889 22.8648 101.674C23.2914 101.522 23.6958 101.321 24.0721 101.074C24.2171 101.055 24.3608 101.027 24.502 100.991L36.0764 98.1013C37.8278 97.666 39.0508 96.1005 39.0508 94.2948V90.1499C39.954 89.9833 40.7856 89.551 41.4497 88.887C42.3126 88.021 42.7877 86.8719 42.7877 85.6511V81.6942C43.1049 81.7221 43.4246 81.7379 43.7471 81.7379C44.2478 81.7381 44.7359 81.8026 45.2024 81.9237L40.9649 95.9653C40.8314 96.4077 40.7638 96.8645 40.7638 97.3227C40.7638 99.9008 42.8638 101.998 45.4453 101.998C46.6723 101.998 47.8327 101.527 48.7133 100.67L51.0011 98.4394L53.2897 100.671C54.1537 101.518 55.3496 102.002 56.5571 101.998C58.0524 101.998 59.4219 101.31 60.314 100.109C61.2061 98.9075 61.4696 97.397 61.0375 95.9649L56.7999 81.9231C57.2655 81.8024 57.7524 81.7381 58.2519 81.7379C58.733 81.7375 59.2085 81.7038 59.6771 81.642V85.6511C59.6771 86.8717 60.1524 88.021 61.017 88.8888C61.6796 89.5516 62.5111 89.9833 63.4144 90.1499V94.2948C63.4144 96.1007 64.6374 97.666 66.3869 98.1009L77.5008 100.877C78.4721 101.602 79.6557 101.998 80.8729 101.998C82.3818 101.998 83.7999 101.411 84.8673 100.344C85.5745 99.6349 86.0692 98.7711 86.3226 97.8299C88.0902 97.7182 89.7366 96.9785 90.9996 95.7156C92.3748 94.3402 93.1324 92.5126 93.1324 90.5694C93.1324 88.6236 92.3746 86.7956 91.0006 85.4242C89.986 84.4076 88.7229 83.7298 87.3479 83.4444V81.7235H88.3418C89.167 81.7235 89.836 81.0545 89.836 80.2294C89.836 79.4042 89.1672 78.7352 88.3418 78.7352H87.3479V77.6658C87.3479 76.8407 86.6792 76.1717 85.8538 76.1717C85.0286 76.1717 84.3597 76.8407 84.3597 77.6658V78.7352H83.3658C82.5406 78.7352 81.8716 79.4042 81.8716 80.2294C81.8716 81.0545 82.5404 81.7235 83.3658 81.7235H84.3597V83.4454C81.061 84.1364 78.5759 87.068 78.5759 90.5696C78.5759 90.7768 78.5873 90.9828 78.6046 91.1878C77.8745 91.5099 77.2147 91.9843 76.6758 92.5831L71.261 91.2298V90.1485C73.3795 89.7403 74.9982 87.82 74.9982 85.5497V80.3842C74.9982 76.5665 72.2846 73.3713 68.6851 72.6248C68.7309 72.2281 68.757 71.8269 68.757 71.4209V71.1368C69.437 71.1131 70.1595 71.0308 70.8745 71.0093C72.4165 71.0093 73.8732 71.7496 74.776 72.9912C75.9048 74.666 77.7832 75.6649 79.8073 75.6649C81.02 75.6649 82.1918 75.3053 83.1946 74.6265C85.0077 73.4035 85.9359 71.336 85.8225 69.2614C86.3819 69.4291 86.9648 69.5154 87.5565 69.5154C89.6172 69.5154 91.519 68.485 92.6434 66.7588C93.7502 65.0585 93.8719 62.9796 93.1528 61.1962C93.4255 61.2337 93.6992 61.2524 93.9712 61.2524C96.7851 61.2524 99.272 59.255 99.8838 56.5034C100.368 54.3281 99.565 52.1234 97.979 50.6912C98.8468 50.382 99.6385 49.8734 100.3 49.1883C101.452 47.9936 102.055 46.4214 101.996 44.7589ZM82.6894 32.1529C82.699 32.2298 82.7067 32.3067 82.7127 32.3836C81.7501 31.7987 80.6685 31.4228 79.5435 31.2857C79.732 30.6414 79.8352 29.9611 79.8352 29.2569C79.8352 28.916 79.8097 28.5811 79.7639 28.2528C81.3136 28.9307 82.4661 30.3831 82.6894 32.1529ZM59.435 29.9348H64.1023C64.9275 29.9348 65.5964 29.2658 65.5964 28.4407C65.5964 27.6155 64.9277 26.9465 64.1023 26.9465L57.2109 26.9457C56.951 26.9457 56.7079 26.8457 56.5264 26.6642C56.3435 26.4814 56.2429 26.2381 56.2429 25.9795C56.2429 25.4456 56.6772 25.0113 57.2109 25.0113H72.5998C74.9416 25.0113 76.8469 26.9157 76.8469 29.2565C76.8469 31.5983 74.9416 33.5036 72.5998 33.5036C66.1969 33.5036 60.9879 38.7136 60.9879 45.1175V47.7462H52.4956V45.1175C52.4956 39.273 55.0181 33.7696 59.435 29.9348ZM19.2691 32.3836C19.2751 32.3071 19.2829 32.2306 19.2925 32.1543C19.517 30.3749 20.6794 28.9168 22.2407 28.2428C22.1939 28.5743 22.1682 28.9126 22.1682 29.2569C22.1682 29.9603 22.271 30.6396 22.459 31.2831C21.3269 31.418 20.2379 31.7949 19.2691 32.3836ZM29.4034 33.5038C27.0616 33.5038 25.1563 31.5985 25.1563 29.2567C25.1563 26.9159 27.0616 25.0115 29.4034 25.0115H44.7922C45.3261 25.0115 45.7604 25.4458 45.7604 25.9797C45.7604 26.2385 45.6598 26.4816 45.477 26.6642C45.2953 26.8457 45.0522 26.9457 44.7922 26.9457L37.9009 26.9465C37.0757 26.9465 36.4067 27.6155 36.4067 28.4407C36.4067 29.2658 37.0757 29.9348 37.9009 29.9348H42.5682C46.9848 33.7696 49.5075 39.273 49.5075 45.1177V47.7464H41.0153V45.1177C41.0153 38.7138 35.8061 33.5038 29.4034 33.5038ZM10.8595 81.2253C10.8595 80.6404 11.3355 80.1646 11.9202 80.1646C12.5049 80.1646 12.9808 80.6406 12.9808 81.2253C12.9808 81.8102 12.5049 82.2861 11.9202 82.2861C11.3355 82.2861 10.8595 81.8102 10.8595 81.2253ZM35.3543 95.2017L23.7745 98.0931C23.7002 98.1118 23.6249 98.1214 23.5446 98.1214C23.2099 98.1214 22.885 98.2338 22.6218 98.4404C22.3925 98.6204 22.1367 98.7615 21.8636 98.8587C21.5813 98.9589 21.2848 99.0097 20.9826 99.0097C20.2718 99.0097 19.6042 98.7336 19.1042 98.2336C18.602 97.7299 18.3252 97.0618 18.3252 96.3523C18.3252 95.6429 18.602 94.9747 19.1028 94.4725C19.6042 93.9711 20.2718 93.695 20.9826 93.695C21.9678 93.695 22.8674 94.2362 23.331 95.1078C23.6531 95.7136 24.3468 96.022 25.0122 95.8557L33.0603 93.8458C33.7254 93.6796 34.1922 93.082 34.1922 92.3963V89.6917C34.5271 89.513 34.8431 89.295 35.1297 89.033C35.4104 89.2892 35.725 89.508 36.0629 89.6887V94.2946C36.0629 94.7249 35.7722 95.0977 35.3543 95.2017ZM39.8 85.6509C39.8 86.0754 39.6343 86.4757 39.3352 86.7757C39.0354 87.0755 38.636 87.2405 38.2103 87.2405C37.3349 87.2405 36.6227 86.5273 36.6227 85.6507C36.6227 84.8255 35.9537 84.1566 35.1285 84.1566C34.3034 84.1566 33.6344 84.8255 33.6344 85.6507C33.6344 86.0804 33.4657 86.4828 33.1593 86.7841C32.8521 87.0859 32.4496 87.2484 32.015 87.2407C31.1559 87.2245 30.4571 86.4657 30.4571 85.5491V80.3836C30.4571 78.0928 32.0058 76.1647 34.1338 75.6091C34.6562 76.7761 35.3987 77.8459 36.3458 78.7649C37.349 79.7385 38.522 80.4888 39.8 80.9926V85.6509ZM57.9154 98.3266C57.5928 98.7609 57.098 99.0099 56.5575 99.0099C56.1226 99.0111 55.6873 98.8362 55.3753 98.5298L52.0446 95.2827C51.4645 94.7172 50.5389 94.7172 49.9588 95.2827L46.6288 98.529C46.3101 98.8392 45.8899 99.0101 45.4457 99.0101C44.5119 99.0101 43.7523 98.2533 43.7523 97.3227C43.7523 97.1568 43.7772 96.9902 43.826 96.8281L47.859 83.4641C48.5605 84.1785 49.0834 85.0778 49.3382 86.1039C49.5287 86.8711 50.2126 87.407 51.0015 87.407C51.7896 87.407 52.4733 86.8717 52.6648 86.1041C52.9196 85.0778 53.4425 84.1781 54.1438 83.4635L58.1769 96.8277C58.3333 97.3458 58.2381 97.8921 57.9154 98.3266ZM58.2499 78.7494C55.2727 78.7512 52.5897 80.2427 51.0015 82.5979C49.4127 80.2427 46.728 78.7512 43.7491 78.7494C39.5353 78.7476 36.2344 75.531 36.2344 71.4265V54.4558C36.2344 52.4039 37.9037 50.7346 39.9556 50.7346H62.046C64.0989 50.7346 65.7692 52.4049 65.7692 54.4578V71.4205C65.769 75.5268 62.4659 78.746 58.2499 78.7494ZM85.8532 86.2785C86.9999 86.2785 88.0769 86.7247 88.8875 87.5371C89.6979 88.3459 90.1442 89.4229 90.1442 90.5694C90.1442 91.7145 89.6975 92.7917 88.8865 93.6027C88.1856 94.3036 87.284 94.7305 86.311 94.8329C86.054 93.9081 85.5633 93.0591 84.8657 92.3594C83.966 91.4599 82.8151 90.9031 81.5708 90.7509C81.5682 90.6903 81.5642 90.6302 81.5642 90.5694C81.5642 88.2033 83.4883 86.2785 85.8532 86.2785ZM76.9208 95.724C77.5671 95.8856 78.2422 95.5997 78.5761 95.023C79.0503 94.2038 79.9304 93.6948 80.8729 93.6948C81.5837 93.6948 82.2515 93.9709 82.7514 94.4709C83.2536 94.9745 83.5303 95.6427 83.5303 96.3523C83.5303 97.062 83.2536 97.7299 82.753 98.2322C82.2515 98.7336 81.5837 99.0099 80.8729 99.0099C80.233 99.0099 79.6372 98.7892 79.1499 98.3714C78.9736 98.2204 78.7646 98.1126 78.5397 98.0565L67.1095 95.2013C66.6931 95.0979 66.4025 94.7249 66.4025 94.2946V89.6893C66.7408 89.5086 67.0555 89.2896 67.3366 89.0332C67.6229 89.295 67.9385 89.5128 68.2729 89.6913V92.3961C68.2729 93.0816 68.7397 93.6792 69.4047 93.8456L76.9208 95.724ZM72.0101 80.3838V85.5493C72.0101 86.4659 71.3102 87.2247 70.4524 87.2409C70.0227 87.2458 69.6143 87.0865 69.3077 86.7853C69.0013 86.484 68.8326 86.0812 68.8326 85.6509C68.8326 84.8257 68.1638 84.1568 67.3384 84.1568C66.5132 84.1568 65.8443 84.8257 65.8443 85.6509C65.8443 86.5275 65.1313 87.2407 64.2547 87.2407C63.829 87.2407 63.4295 87.0755 63.1317 86.7777C62.8307 86.4757 62.6649 86.0754 62.6649 85.6509V80.7952C63.7638 80.2997 64.7757 79.617 65.6566 78.7619C66.627 77.82 67.3836 76.7203 67.9076 75.5192C70.2337 75.9169 72.0101 77.9461 72.0101 80.3838ZM98.1498 47.1122C97.5649 47.7183 96.7789 48.0522 95.9372 48.0522H90.2358C89.4812 48.0522 88.8451 48.6148 88.753 49.3636C88.6608 50.1125 89.1413 50.8125 89.8734 50.9956L94.614 52.1808C96.2701 52.5955 97.3258 54.2429 96.967 55.8536C96.6564 57.2501 95.3966 58.2637 93.9712 58.2637C93.7231 58.2637 93.4699 58.2322 93.2219 58.1709L88.7217 57.0453C88.0171 56.8688 87.2872 57.2256 86.9931 57.8902C86.6991 58.5548 86.9258 59.3347 87.5306 59.7377L89.1796 60.837C90.6223 61.7998 91.0526 63.7247 90.1394 65.1276C89.5686 66.0038 88.603 66.5267 87.5565 66.5267C86.9525 66.5267 86.3646 66.348 85.8572 66.0105L83.5166 64.4507C82.9233 64.0554 82.1344 64.1341 81.6314 64.6377C81.1279 65.1415 81.0498 65.9306 81.4451 66.5231L82.2952 67.7973C83.2663 69.2548 82.9203 71.2068 81.5216 72.1503C81.013 72.4943 80.4203 72.6764 79.8073 72.6764C78.7746 72.6764 77.8167 72.1648 77.2454 71.3078C77.2354 71.2928 77.2252 71.2781 77.2149 71.2635C75.7528 69.2331 73.3829 68.0209 70.8745 68.0209C70.1613 68.0286 69.442 68.1189 68.757 68.1444V59.4608C71.5391 59.7314 74.2738 58.6195 76.0887 56.3739C76.0971 56.3638 76.104 56.3548 76.112 56.3442L76.1319 56.3203C76.1395 56.3112 76.1471 56.302 76.1544 56.2926C78.2502 53.6648 78.0861 49.5975 75.7793 47.0318C75.2705 46.4674 74.9902 45.738 74.9902 44.9782C74.9902 44.1582 75.3102 43.3867 75.8911 42.8055C76.4724 42.2244 77.244 41.9045 78.0641 41.9045H95.8277C97.5232 41.9045 98.9508 43.2335 99.01 44.8657C99.0397 45.7089 98.7341 46.5068 98.1498 47.1122Z" fill="#E2E2E2" stroke="white" stroke-width="0.5"/>
<path d="M63.7769 70.2769C63.7769 69.4518 63.1081 68.7828 62.2828 68.7828C61.4576 68.7828 60.7886 69.4518 60.7886 70.2769V71.4205C60.7886 72.7363 59.6716 73.7679 58.2468 73.769C55.6576 73.769 53.1735 74.4793 51.0016 75.8322C48.8293 74.4793 46.3443 73.769 43.7536 73.769C42.3071 73.7679 41.2164 72.7606 41.2164 71.4264V55.7148H60.7886V64.3008C60.7886 65.1259 61.4574 65.7949 62.2828 65.7949C63.1079 65.7949 63.7769 65.1259 63.7769 64.3008V54.4578C63.7769 53.5031 63.0014 52.7266 62.0479 52.7266H39.9555C39.0031 52.7266 38.2285 53.5023 38.2285 54.4558V71.4264C38.2285 74.4129 40.6544 76.7545 43.7527 76.7573C46.0626 76.7573 48.2634 77.4775 50.1171 78.8398C50.3803 79.0332 50.691 79.1298 51.0018 79.1298C51.3126 79.1298 51.6234 79.033 51.8865 78.8398C53.7403 77.4775 55.9398 76.7573 58.2484 76.7573C61.3486 76.7545 63.7771 74.4103 63.7771 71.4205V70.2769H63.7769Z" fill="#E2E2E2" stroke="white" stroke-width="0.5"/>
<path d="M39.4062 20.0312H62.5969C63.4221 20.0312 64.091 19.3622 64.091 18.5371C64.091 17.7119 63.4223 17.0429 62.5969 17.0429H62.1216L62.8087 14.1825C63.3675 11.8557 62.8382 9.44352 61.3568 7.56409C59.8754 5.68486 57.6533 4.60709 55.2605 4.60709H52.4957V1.49609C52.4957 0.670929 51.8269 0.00195312 51.0016 0.00195312C50.1764 0.00195312 49.5074 0.670929 49.5074 1.49609V4.60729H46.7429C44.3499 4.60729 42.128 5.68506 40.6466 7.56449C39.1652 9.44372 38.6361 11.8561 39.1949 14.1829L39.8818 17.0433H39.4062C38.5811 17.0433 37.9121 17.7123 37.9121 18.5375C37.9121 19.3626 38.5811 20.0312 39.4062 20.0312ZM53.5065 7.59537L51.9843 17.0431H50.0188L48.4968 7.59537H53.5065ZM59.0102 9.41424C59.9214 10.5701 60.2469 12.0539 59.9031 13.4849L59.0484 17.0431H55.011L56.5066 7.76052C57.4867 8.02349 58.3633 8.59386 59.0102 9.41424ZM42.1003 13.4849C41.7566 12.0539 42.0822 10.5701 42.9932 9.41424C43.6398 8.59386 44.5166 8.02349 45.497 7.76052L46.9925 17.0431H42.9549L42.1003 13.4849Z" fill="#E2E2E2" stroke="white" stroke-width="0.5"/>
</g>
<defs>
<clipPath id="clip0_235_5564">
<rect width="75" height="68" fill="white"/>
</clipPath>
</defs>
</svg>
