<svg width="75" height="68" viewBox="0 0 75 68" fill="none" xmlns="http://www.w3.org/2000/svg">
<g clip-path="url(#clip0_235_5670)">
<path d="M58.25 17H48.25C47.9185 17 47.6005 17.1317 47.3661 17.3661C47.1317 17.6005 47 17.9185 47 18.25C47 18.5815 47.1317 18.8995 47.3661 19.1339C47.6005 19.3683 47.9185 19.5 48.25 19.5H58.25C58.5815 19.5 58.8995 19.3683 59.1339 19.1339C59.3683 18.8995 59.5 18.5815 59.5 18.25C59.5 17.9185 59.3683 17.6005 59.1339 17.3661C58.8995 17.1317 58.5815 17 58.25 17Z" fill="#E2E2E2"/>
<path d="M53.25 52H48.25C47.9185 52 47.6005 52.1317 47.3661 52.3661C47.1317 52.6005 47 52.9185 47 53.25C47 53.5815 47.1317 53.8995 47.3661 54.1339C47.6005 54.3683 47.9185 54.5 48.25 54.5H53.25C53.5815 54.5 53.8995 54.3683 54.1339 54.1339C54.3683 53.8995 54.5 53.5815 54.5 53.25C54.5 52.9185 54.3683 52.6005 54.1339 52.3661C53.8995 52.1317 53.5815 52 53.25 52Z" fill="#E2E2E2"/>
<path d="M37.0001 14.5013H13.25C13.0859 14.5013 12.9233 14.5336 12.7717 14.5964C12.62 14.6592 12.4822 14.7513 12.3661 14.8674L7.36614 19.8674C7.25006 19.9834 7.15798 20.1212 7.09516 20.2729C7.03233 20.4246 7 20.5871 7 20.7513C7 20.9154 7.03233 21.078 7.09516 21.2296C7.15798 21.3813 7.25006 21.5191 7.36614 21.6352L12.3661 26.6352C12.4822 26.7512 12.62 26.8433 12.7717 26.9061C12.9233 26.9689 13.0859 27.0013 13.25 27.0013H37.0001V32.0013H18.25C18.0859 32.0013 17.9233 32.0336 17.7717 32.0964C17.62 32.1592 17.4822 32.2513 17.3661 32.3674L12.3661 37.3674C12.2501 37.4834 12.158 37.6212 12.0952 37.7729C12.0323 37.9246 12 38.0871 12 38.2513C12 38.4154 12.0323 38.578 12.0952 38.7296C12.158 38.8813 12.2501 39.0191 12.3661 39.1352L17.3661 44.1352C17.4822 44.2512 17.62 44.3433 17.7717 44.4061C17.9233 44.4689 18.0859 44.5013 18.25 44.5013H37.0001V75.7513C37.0001 76.0828 37.1317 76.4007 37.3662 76.6352C37.6006 76.8696 37.9185 77.0013 38.2501 77.0013H43.2501C43.5816 77.0013 43.8995 76.8696 44.1339 76.6352C44.3684 76.4007 44.5001 76.0828 44.5001 75.7513V59.5013H58.2501C58.4142 59.5013 58.5768 59.4689 58.7284 59.4061C58.8801 59.3433 59.0179 59.2512 59.134 59.1352L64.134 54.1352C64.25 54.0191 64.3421 53.8813 64.4049 53.7296C64.4678 53.578 64.5001 53.4154 64.5001 53.2513C64.5001 53.0871 64.4678 52.9246 64.4049 52.7729C64.3421 52.6212 64.25 52.4834 64.134 52.3674L59.134 47.3674C59.0179 47.2513 58.8801 47.1592 58.7284 47.0964C58.5768 47.0336 58.4142 47.0013 58.2501 47.0013H44.5001V42.0013H68.2501C68.4142 42.0013 68.5768 41.9689 68.7284 41.9061C68.8801 41.8433 69.0179 41.7512 69.134 41.6352L74.134 36.6352C74.25 36.5191 74.3421 36.3813 74.405 36.2296C74.4678 36.078 74.5001 35.9154 74.5001 35.7513C74.5001 35.5871 74.4678 35.4246 74.405 35.2729C74.3421 35.1212 74.25 34.9834 74.134 34.8674L69.134 29.8674C69.0179 29.7513 68.8801 29.6592 68.7284 29.5964C68.5768 29.5336 68.4142 29.5013 68.2501 29.5013H44.5001V24.5013H63.2501C63.4142 24.5013 63.5768 24.4689 63.7284 24.4061C63.8801 24.3433 64.0179 24.2512 64.134 24.1352L69.134 19.1352C69.25 19.0191 69.3421 18.8813 69.4049 18.7296C69.4678 18.578 69.5001 18.4154 69.5001 18.2513C69.5001 18.0871 69.4678 17.9246 69.4049 17.7729C69.3421 17.6212 69.25 17.4834 69.134 17.3674L64.134 12.3674C64.0179 12.2513 63.8801 12.1592 63.7284 12.0964C63.5768 12.0336 63.4142 12.0013 63.2501 12.0013H44.5001V8.25127C44.5003 8.08699 44.468 7.9243 44.4051 7.77254C44.3422 7.62079 44.2499 7.48298 44.1335 7.36705C44.4067 6.79542 44.5306 6.1639 44.4937 5.53142C44.4567 4.89894 44.2602 4.28613 43.9223 3.75018C43.5844 3.21423 43.1163 2.77262 42.5616 2.46657C42.0068 2.16052 41.3836 2 40.7501 2C40.1165 2 39.4933 2.16052 38.9385 2.46657C38.3838 2.77262 37.9157 3.21423 37.5778 3.75018C37.2399 4.28613 37.0434 4.89894 37.0064 5.53142C36.9695 6.1639 37.0934 6.79542 37.3666 7.36705C37.2502 7.48298 37.1579 7.62079 37.095 7.77254C37.0321 7.9243 36.9998 8.08699 37.0001 8.25127V14.5013ZM37.0001 42.0013H18.7677L15.0177 38.2513L18.7677 34.5013H37.0001V42.0013ZM37.0001 24.5013H13.7677L10.0177 20.7513L13.7677 17.0013H37.0001V24.5013ZM44.5001 14.5013H62.7324L66.4824 18.2513L62.7324 22.0013H44.5001V14.5013ZM44.5001 32.0013H67.7324L71.4824 35.7513L67.7324 39.5013H44.5001V32.0013ZM44.5001 49.5013H57.7324L61.4824 53.2513L57.7324 57.0013H44.5001V49.5013ZM40.7501 4.50127C40.9973 4.50127 41.239 4.57458 41.4445 4.71193C41.6501 4.84928 41.8103 5.04451 41.9049 5.27291C41.9995 5.50132 42.0243 5.75266 41.976 5.99513C41.9278 6.23761 41.8088 6.46034 41.6339 6.63515C41.4591 6.80997 41.2364 6.92902 40.9939 6.97725C40.7514 7.02548 40.5001 7.00073 40.2717 6.90612C40.0433 6.81151 39.8481 6.65129 39.7107 6.44573C39.5734 6.24017 39.5001 5.9985 39.5001 5.75127C39.5004 5.41986 39.6322 5.10214 39.8666 4.8678C40.1009 4.63346 40.4186 4.50164 40.7501 4.50127ZM39.5001 9.50127H42.0001V74.5013H39.5001V9.50127Z" fill="#E2E2E2"/>
<path d="M63.25 34.5H48.25C47.9185 34.5 47.6005 34.6317 47.3661 34.8661C47.1317 35.1005 47 35.4185 47 35.75C47 36.0815 47.1317 36.3995 47.3661 36.6339C47.6005 36.8683 47.9185 37 48.25 37H63.25C63.5815 37 63.8995 36.8683 64.1339 36.6339C64.3683 36.3995 64.5 36.0815 64.5 35.75C64.5 35.4185 64.3683 35.1005 64.1339 34.8661C63.8995 34.6317 63.5815 34.5 63.25 34.5Z" fill="#E2E2E2"/>
<path d="M18.25 22H33.25C33.5815 22 33.8995 21.8683 34.1339 21.6339C34.3683 21.3995 34.5 21.0815 34.5 20.75C34.5 20.4185 34.3683 20.1005 34.1339 19.8661C33.8995 19.6317 33.5815 19.5 33.25 19.5H18.25C17.9185 19.5 17.6005 19.6317 17.3661 19.8661C17.1317 20.1005 17 20.4185 17 20.75C17 21.0815 17.1317 21.3995 17.3661 21.6339C17.6005 21.8683 17.9185 22 18.25 22Z" fill="#E2E2E2"/>
<path d="M23.25 39.5H33.25C33.5815 39.5 33.8995 39.3683 34.1339 39.1339C34.3683 38.8995 34.5 38.5815 34.5 38.25C34.5 37.9185 34.3683 37.6005 34.1339 37.3661C33.8995 37.1317 33.5815 37 33.25 37H23.25C22.9185 37 22.6005 37.1317 22.3661 37.3661C22.1317 37.6005 22 37.9185 22 38.25C22 38.5815 22.1317 38.8995 22.3661 39.1339C22.6005 39.3683 22.9185 39.5 23.25 39.5Z" fill="#E2E2E2"/>
</g>
<defs>
<clipPath id="clip0_235_5670">
<rect width="75" height="68" fill="white"/>
</clipPath>
</defs>
</svg>
