<svg width="75" height="68" viewBox="0 0 75 68" fill="none" xmlns="http://www.w3.org/2000/svg">
<g clip-path="url(#clip0_235_5596)">
<path d="M22.6665 48H12V50.6666H22.6665V48Z" fill="#E2E2E2"/>
<path d="M79.8573 63.4021L75.8574 55.4023C75.6316 54.9504 75.1697 54.6653 74.6647 54.6653H66.6649V50.6653C66.6649 49.929 66.0679 49.332 65.3316 49.332H38.6653C37.929 49.332 37.332 49.929 37.332 50.6653V74.665C37.332 75.4013 37.929 75.9983 38.6653 75.9983H44.1879C44.9099 78.8392 47.7984 80.5569 50.6391 79.8349C52.5244 79.3557 53.9966 77.8836 54.4757 75.9983H64.1876C64.9096 78.8392 67.798 80.5569 70.6388 79.8349C72.5241 79.3557 73.9963 77.8836 74.4754 75.9983H78.6647C79.401 75.9983 79.998 75.4013 79.998 74.665V63.9985C79.998 63.7915 79.9498 63.5873 79.8573 63.4021ZM49.3318 77.3316C47.859 77.3316 46.6652 76.1378 46.6652 74.665C46.6652 73.1922 47.859 71.9983 49.3318 71.9983C50.8046 71.9983 51.9985 73.1922 51.9985 74.665C51.997 76.1371 50.804 77.3301 49.3318 77.3316ZM63.9983 73.3316H54.4757C53.8713 70.983 51.757 69.339 49.3318 69.3317C46.9067 69.339 44.7924 70.983 44.1879 73.3316H39.9987V51.9987H63.9983V73.3316ZM71.9981 57.3319H73.8406L76.5074 62.6652H71.9981V57.3319ZM69.3315 77.3316C67.8587 77.3316 66.6649 76.1378 66.6649 74.665C66.6649 73.1922 67.8587 71.9983 69.3315 71.9983C70.8043 71.9983 71.9981 73.1922 71.9981 74.665C71.9966 76.1371 70.8036 77.3301 69.3315 77.3316ZM77.3314 73.3316H74.4754C73.8709 70.983 71.7566 69.339 69.3315 69.3317C68.3923 69.337 67.4719 69.5932 66.6649 70.0737V57.3319H69.3315V63.9985C69.3315 64.7348 69.9285 65.3318 70.6648 65.3318H77.3314V73.3316Z" fill="#E2E2E2"/>
<path d="M31.9993 18.666H29.334V21.3326H31.9993V18.666Z" fill="#E2E2E2"/>
<path d="M37.3313 18.666H34.666V21.3326H37.3313V18.666Z" fill="#E2E2E2"/>
<path d="M42.6653 18.666H40V21.3326H42.6653V18.666Z" fill="#E2E2E2"/>
<path d="M47.9993 18.666H45.334V21.3326H47.9993V18.666Z" fill="#E2E2E2"/>
<path d="M73.4508 22.2705L69.32 18.139C66.2489 15.0717 62.089 13.3441 57.7485 13.3331H47.4077L41.133 3.29361C40.8891 2.90378 40.462 2.66679 40.0022 2.66662H36.0022C35.2656 2.66696 34.6686 3.26445 34.6689 4.00127C34.6689 4.10993 34.6822 4.2181 34.7086 4.32359L36.961 13.3331H26.3279L22.6131 0.950484C22.444 0.386327 21.9246 0 21.3358 0H14.6692C13.9329 0 13.3359 0.59699 13.3359 1.33331V14.6664H13.3484C13.3441 15.0184 13.4801 15.3577 13.7266 15.6091L22.0598 23.9423C25.4979 27.4029 30.1775 29.3438 35.0556 29.3328H35.4187L32.1058 36.7917C31.807 37.4645 32.1101 38.2524 32.7829 38.5514C32.8221 38.5687 32.8619 38.5842 32.9026 38.5977L36.8999 39.931C37.4599 40.1175 38.0757 39.9138 38.4142 39.4303L45.4781 29.3328H70.5218C72.8058 29.337 74.6606 27.489 74.6649 25.2051C74.6669 24.1043 74.2299 23.0481 73.4508 22.2705ZM39.2632 5.33324L44.2631 13.3331H39.71L37.7099 5.33324H39.2632ZM16.0026 2.66662H20.3437L23.5436 13.3331H16.0026V2.66662ZM36.7997 37.0866L35.1389 36.5326L39.521 26.6662H44.0893L36.7997 37.0866ZM71.8896 25.7522C71.6675 26.3112 71.1231 26.6749 70.5218 26.6662H47.3435L47.7415 26.0972C48.1635 25.4937 48.0164 24.6623 47.4129 24.2403C47.1889 24.0838 46.9224 23.9996 46.649 23.9996H38.6543C38.1272 23.9996 37.6495 24.3101 37.4357 24.7919L36.6032 26.6662H35.0556C30.8851 26.6754 26.8844 25.0156 23.9451 22.057L17.8879 15.9997H57.7485C60.6555 16.0122 63.4836 16.9459 65.8267 18.6664H56.0019V21.333H68.7418L71.5686 24.1598C71.9956 24.5726 72.1235 25.2062 71.8896 25.7522Z" fill="#E2E2E2"/>
<path d="M32.6838 76.3535C31.8443 75.452 30.7183 74.8692 29.4975 74.7044L34.5887 60.4488C34.8361 59.7543 34.4736 58.991 33.7791 58.7436C33.7711 58.7408 33.7629 58.738 33.7547 58.7353L30.5035 57.6515L27.9782 43.7622C27.863 43.1281 27.3107 42.6672 26.6664 42.6672H21.3331V38.6673C21.3331 37.931 20.7361 37.334 19.9998 37.334H14.6666C13.9302 37.334 13.3333 37.931 13.3333 38.6673V42.6672H8.00001C7.35552 42.6672 6.80336 43.1282 6.6882 43.7622L4.16291 57.6515L0.911629 58.7353C0.212474 58.9691 -0.16452 59.7254 0.0693097 60.4244C0.0719763 60.4326 0.0748096 60.4406 0.0776429 60.4488L5.16889 74.7049C3.95008 74.8709 2.8261 75.4534 1.98778 76.3535C1.50529 76.9612 0.775965 77.3208 0.000144155 77.3333V79.9999C1.44495 79.9921 2.82076 79.3808 3.79508 78.3138C4.27757 77.7056 5.00723 77.3458 5.78338 77.3333C6.06504 77.331 6.34454 77.3832 6.60653 77.4868C6.6177 77.4918 6.62487 77.5025 6.6362 77.5072C7.05436 77.7155 7.43402 77.9933 7.75918 78.3288C8.7435 79.3866 10.1208 79.9913 11.5658 79.9999C13.0103 79.9919 14.3857 79.3803 15.3594 78.3131C16.1982 77.2175 17.7663 77.0092 18.862 77.8478C19.0367 77.9815 19.193 78.1378 19.3268 78.3125C20.2995 79.38 21.6743 79.9918 23.1184 79.9999C24.5626 79.9913 25.9389 79.3863 26.9217 78.3281C27.244 77.9951 27.6202 77.7186 28.0343 77.5105C28.0463 77.5055 28.054 77.4942 28.0657 77.4888C28.3283 77.3838 28.6088 77.3312 28.8917 77.3335C29.666 77.346 30.3938 77.7056 30.8741 78.3133C31.8473 79.3803 33.2223 79.9918 34.6662 80.0001V77.3335C33.8919 77.3208 33.1641 76.9612 32.6838 76.3535ZM15.9999 40.0006H18.6665V42.6672H15.9999V40.0006ZM15.9999 74.8405C15.0682 75.1287 14.2254 75.6493 13.5508 76.3535C12.7098 77.4503 11.1388 77.6576 10.042 76.8167C9.86798 76.6833 9.71232 76.5275 9.57882 76.3535C9.16499 75.9492 8.70617 75.5935 8.21134 75.2937L3.04693 60.8343L15.9999 56.517V74.8405ZM16.9114 53.4021L7.04803 56.6898L9.11266 45.3339H25.5537L27.6184 56.6898L17.755 53.4021C17.4812 53.3109 17.1852 53.3109 16.9114 53.4021ZM26.4524 75.3024C25.9634 75.6008 25.5097 75.9537 25.1001 76.3542C24.2629 77.4487 22.6969 77.6572 21.6025 76.82C21.4273 76.686 21.2706 76.5293 21.1366 76.3542C20.458 75.6428 19.6072 75.1189 18.6667 74.833V56.517L31.6196 60.8343L26.4524 75.3024Z" fill="#E2E2E2"/>
<path d="M53.3313 18.666H50.666V21.3326H53.3313V18.666Z" fill="#E2E2E2"/>
</g>
<defs>
<clipPath id="clip0_235_5596">
<rect width="75" height="68" fill="white"/>
</clipPath>
</defs>
</svg>
