<svg width="75" height="68" viewBox="0 0 75 68" fill="none" xmlns="http://www.w3.org/2000/svg">
<g clip-path="url(#clip0_235_5662)">
<path d="M69 30.2588C69 26.1318 66.9734 23.0041 64.7157 19.9004L55.4555 8L46.2355 19.8471L46.1955 19.9003C45.5865 20.7373 44.995 21.5762 44.4549 22.4357L39.4003 15.9404L23.6562 36.1702L23.6162 36.2234C19.6027 41.7408 16 47.2837 16 54.4137C16 67.388 26.4472 77.9491 39.3079 77.9995L39.4033 78C52.3047 78 62.8006 67.4195 62.8006 54.4141C62.8006 50.2405 61.565 46.611 59.7361 43.2118C65.1132 41.4022 69 36.2797 69 30.2588ZM39.4913 73.8927L39.4003 73.8926C28.7442 73.8926 20.0748 65.1545 20.0748 54.4138C20.0748 48.528 23.1562 43.8035 26.8828 38.6789L39.4003 22.5951L42.4813 26.554C42.1216 27.7072 41.911 28.931 41.911 30.2586C41.911 37.7564 47.9395 43.862 55.3674 43.9104L55.4468 43.9108C57.4044 47.2063 58.7259 50.5615 58.7259 54.4142C58.7259 65.1252 50.1056 73.8448 39.4913 73.8927ZM55.508 39.8034H55.4554C50.2338 39.8034 45.9857 35.5216 45.9857 30.2585C45.9857 27.3737 47.491 25.0667 49.462 22.3556L55.4555 14.6545L61.449 22.3556C63.4201 25.0667 64.9253 27.374 64.9253 30.2588C64.9252 35.5048 60.7056 39.7759 55.508 39.8034Z" fill="#E2E2E2" stroke="white"/>
</g>
<defs>
<clipPath id="clip0_235_5662">
<rect width="75" height="68" fill="white"/>
</clipPath>
</defs>
</svg>
